<svg xmlns="http://www.w3.org/2000/svg" xml:space="preserve" viewBox="0 0 315.911 387.521">
  <path fill="#36565f" d="m222.701 169.737-6.029-45.148 3.053-.408 6.035 45.147-3.059.409M271.997 163.153l-6.029-45.148 3.057-.407 6.031 45.145-3.059.41z"/>
  <path fill="#f9c529" d="m291.208 121.573-.912-6.817 6.815-.912.914 6.818-6.817.911z"/>
  <path fill="#00292f" d="m280.288 123.03-.91-6.816 6.816-.91.909 6.816-6.815.91z"/>
  <path fill="#c7c8c9" d="m269.146 271.213-2.941-22.024 3.059-.408 2.938 22.024-3.056.408z"/>
  <path fill="#a6a4a4" d="M273.454 293.488c.785 4.812 1.494 9.634 2.195 14.451l2.011 14.479 1.858 14.5c.594 4.835 1.173 9.677 1.677 14.526-.785-4.814-1.495-9.631-2.195-14.455l-2.014-14.479-1.859-14.501c-.589-4.834-1.168-9.669-1.673-14.521zM269.282 294.047c.784 4.809 1.493 9.629 2.193 14.455l2.013 14.477 1.857 14.498c.592 4.84 1.172 9.677 1.678 14.525-.787-4.815-1.498-9.634-2.196-14.456l-2.013-14.479-1.855-14.495c-.592-4.841-1.174-9.676-1.677-14.525zM265.106 294.603c.786 4.81 1.495 9.634 2.197 14.455l2.014 14.479 1.857 14.501c.591 4.834 1.171 9.673 1.674 14.521-.784-4.811-1.493-9.632-2.194-14.453l-2.013-14.48-1.855-14.497c-.591-4.842-1.17-9.677-1.68-14.526zM260.936 295.16c.412 2.021.752 4.051 1.074 6.085.33 2.035.598 4.076.898 6.111.248 2.043.521 4.085.74 6.132.217 2.047.427 4.097.559 6.154-.414-2.023-.751-4.056-1.08-6.084-.326-2.035-.597-4.076-.893-6.109-.246-2.049-.522-4.087-.742-6.135-.217-2.044-.423-4.093-.556-6.154z"/>
  <path fill="#f9c529" d="M272.087 283.237a1.37 1.37 0 1 1-.37-2.713 1.37 1.37 0 0 1 .37 2.713z"/>
  <path fill="#36565f" d="M250.513 140.534c-5.553.738-10.654-3.162-11.395-8.712-.741-5.548 3.157-10.653 8.713-11.395 5.547-.741 10.651 3.159 11.392 8.709.499 3.733-1.1 7.26-3.888 9.404a10.124 10.124 0 0 1-4.822 1.994"/>
  <path fill="#f9c529" d="m255.335 138.541-6.166-8.06 10.054-1.345c.499 3.734-1.1 7.26-3.888 9.405"/>
  <path fill="#fff" d="M250.099 137.432c-3.839.515-7.366-2.185-7.881-6.021a7.012 7.012 0 0 1 6.022-7.882 7.017 7.017 0 0 1 7.883 6.022 7.01 7.01 0 0 1-6.024 7.881"/>
  <path fill="#00292f" d="m250.284 133.278-.774-5.788.819-.11.773 5.79-.818.108"/>
  <path fill="#a6a4a4" d="m248.203 135.017-1.156-8.658.82-.108 1.154 8.653-.818.113"/>
  <path fill="#36565f" d="M254.271 168.664a9.21 9.21 0 0 1-1.485.087 10.131 10.131 0 0 1-9.909-8.794c-.743-5.554 3.16-10.657 8.709-11.395 5.551-.742 10.654 3.155 11.396 8.706a10.142 10.142 0 0 1-3.889 9.401 10.09 10.09 0 0 1-4.822 1.995z"/>
  <path fill="#f9c529" d="M254.271 168.664a9.21 9.21 0 0 1-1.485.087l.145-10.141 10.052-1.342a10.142 10.142 0 0 1-3.889 9.401 10.099 10.099 0 0 1-4.823 1.995z"/>
  <path fill="#fff" d="M253.857 165.563c-3.84.514-7.367-2.184-7.881-6.023s2.183-7.368 6.023-7.878a7.013 7.013 0 1 1 1.858 13.901z"/>
  <path fill="#00292f" d="m254.043 161.407-.772-5.787.815-.109.775 5.788-.818.108z"/>
  <path fill="#a6a4a4" d="m251.961 163.144-1.156-8.653.82-.112 1.157 8.656-.821.109z"/>
  <path fill="#36565f" d="M258.054 196.991a10.143 10.143 0 0 1-2.688-20.106c5.557-.743 10.659 3.155 11.397 8.706a10.126 10.126 0 0 1-3.889 9.4 10.08 10.08 0 0 1-4.82 2z"/>
  <path fill="#f9c529" d="M258.054 196.991a10.143 10.143 0 0 1-10.246-5.197l8.903-4.857 10.052-1.345a10.126 10.126 0 0 1-3.889 9.4 10.089 10.089 0 0 1-4.82 1.999z"/>
  <path fill="#fff" d="M257.64 193.891c-3.839.514-7.367-2.187-7.881-6.025a7.012 7.012 0 0 1 6.025-7.881c3.837-.511 7.37 2.183 7.878 6.024a7.013 7.013 0 0 1-6.022 7.882z"/>
  <path fill="#00292f" d="m257.824 189.732-.77-5.788.817-.107.774 5.787-.821.108z"/>
  <path fill="#a6a4a4" d="m255.748 191.473-1.158-8.66.817-.107 1.157 8.655-.816.112z"/>
  <path fill="#36565f" d="M261.816 225.162a10.059 10.059 0 0 1-5.985-1.038 10.12 10.12 0 0 1-5.409-7.673 10.076 10.076 0 0 1 1.539-6.846 10.102 10.102 0 0 1 7.17-4.552c5.552-.741 10.654 3.162 11.396 8.71a10.14 10.14 0 0 1-8.711 11.399z"/>
  <path fill="#f9c529" d="M261.816 225.162a10.059 10.059 0 0 1-5.985-1.038 10.12 10.12 0 0 1-5.409-7.673 10.076 10.076 0 0 1 1.539-6.846l8.516 5.504 10.051-1.346a10.14 10.14 0 0 1-8.712 11.399z"/>
  <path fill="#fff" d="M261.406 222.059a7.009 7.009 0 0 1-7.883-6.024 7.009 7.009 0 0 1 6.022-7.879 7.015 7.015 0 0 1 1.861 13.903z"/>
  <path fill="#00292f" d="m261.592 217.906-.778-5.791.821-.11.773 5.792-.816.109z"/>
  <path fill="#a6a4a4" d="m259.51 219.642-1.156-8.659.818-.108 1.154 8.658-.816.109z"/>
  <path fill="#f9c529" d="M203.613 132.646a.908.908 0 0 1-.281-.406l-.068-.212-.049-.381.012-.387c.035-.52.193-1 .422-1.464a9.04 9.04 0 0 1 2.15-2.801c.384-.335.803-.617 1.287-.785l.386-.119.362-.047.367.038.338.118-.048.067c-.452.589-.904 1.179-1.353 1.771l-.095.041a.774.774 0 0 0-.738.266 16.5 16.5 0 0 0-1.224 1.602.772.772 0 0 0-.065.78l-.005.091c-.457.601-.914 1.198-1.373 1.799l-.025.029M204.646 133.441c-.208-.159-.417-.318-.625-.479l-.041-.032c.46-.606.923-1.212 1.387-1.815l.13.107c.177.136.353.272.529.404.155.12.172.256.054.408-.341.454-.688.905-1.033 1.353l-.401.054M208.195 128.831c-.227-.179-.447-.36-.673-.54.447-.584.907-1.189 1.368-1.788l.043.025c.215.162.424.321.635.486l.052.391c-.347.456-.698.912-1.044 1.367l-.381.059M195.594 134.429l-.186-.148c-.971-.778-1.936-1.555-2.908-2.331-.212-.174-.243-.389-.079-.613l2.224-3.091.092-.122.097.23.257 1.854c.176 1.294.354 2.581.531 3.872l-.028.349"/>
  <path fill="#f9c529" d="m190.856 135.052-.073-.224c-.102-.739-.207-1.478-.305-2.215-.165-1.191-.326-2.38-.493-3.569l.036-.299 2.404 1.934c-.118.162-.229.324-.341.483l-.15.204a.487.487 0 0 0 .091.682c.213.168.426.342.649.518a435.79 435.79 0 0 0-1.79 2.484l-.028.002M192.648 130.373c-.798-.623-1.574-1.259-2.369-1.882l.1-.026c1.303-.179 2.605-.362 3.91-.538l.122-.004a799.03 799.03 0 0 1-1.763 2.45M191.201 135.247l.664-.913c.355-.49.708-.983 1.062-1.479l.034-.056c.798.63 1.578 1.266 2.371 1.88l-4.131.568M222.942 239.441a4.976 4.976 0 0 0-1.591-.13l-.004-.021c-.063-.446-.122-.89-.181-1.333l-.001-.021.039-.002.107-.007a4.264 4.264 0 0 1 1.438.212l.025.034c.053.412.109.833.166 1.243l.002.025M219.478 239.861l-.001-.021c-.055-.412-.112-.825-.17-1.237l.021-.035c.283-.183.59-.329.908-.44.152-.05.314-.093.477-.123l.012-.008.041-.002.005.018c.058.442.116.886.177 1.327l-.022.03-.325.067c-.17.043-.344.094-.51.155a4.506 4.506 0 0 0-.59.262l-.023.007M219.789 245.215l-.025-.009a4.114 4.114 0 0 1-.506-.294 3.658 3.658 0 0 1-.554-.46 4.17 4.17 0 0 1-.45-.547 4.177 4.177 0 0 1-.328-.599 3.897 3.897 0 0 1-.18-.509l-.018-.048-.006-.033.018-.03.025.029c.316.352.685.639 1.098.863.233.128.477.235.732.317l.02.027c.057.422.117.846.172 1.268l.002.025M221.932 243.646l-.236-1.771 1.544-.205.004.02c.062.45.12.906.183 1.361l-.014.028c-.275.17-.568.303-.869.403a3.551 3.551 0 0 1-.48.134l-.132.03M221.517 243.689l-.11.007-.26.013-.365-.012a4.472 4.472 0 0 1-.783-.128l-.029-.032c-.063-.463-.123-.928-.184-1.394l-.007-.023 1.501-.202.237 1.771M223.178 241.272l-1.547.205-.229-1.729.112-.007.262-.006.403.018c.271.024.538.076.797.148l.023.025c.062.442.117.881.177 1.321l.002.025M221.211 241.532l-1.459.2-.024.003-.001-.026c-.059-.453-.123-.903-.185-1.356l.017-.035c.24-.136.492-.25.754-.336l.404-.119.27-.059.01-.001.006.02c.074.565.148 1.128.227 1.688l-.019.021M222.169 245.523l-.193-1.45a5.122 5.122 0 0 0 1.513-.546l.002.021c.06.442.117.888.18 1.326l-.014.037a3.835 3.835 0 0 1-.928.463 4.478 4.478 0 0 1-.529.146l-.031.003M221.775 245.577l-.096.006-.4.007a3.8 3.8 0 0 1-.902-.152l-.145-.04-.02-.021c-.057-.443-.117-.887-.176-1.333v-.015l.141.029c.244.048.487.075.734.084.176.011.354.005.533-.007l.127-.008.016.013.001.014.187 1.423M224.035 244.606l-.006-.001-.003-.019-.17-1.27.015-.034c.313-.215.599-.463.85-.753.143-.168.269-.349.379-.543l.158-.292.008-.014.014.016.029-.012c.006.456-.062.901-.217 1.332a3.699 3.699 0 0 1-1.057 1.59M217.614 241.766l-.009-.039.023-.426c.031-.26.089-.516.176-.768a3.755 3.755 0 0 1 .784-1.329l.353-.333.011-.008.002.021.158 1.181-.013.031a5.102 5.102 0 0 0-.653.527 4.546 4.546 0 0 0-.818 1.127l-.014.016M225.141 240.742l-.153-.162a4.7 4.7 0 0 0-.61-.503 4.124 4.124 0 0 0-.936-.481l-.063-.023-.012-.019-.012-.063-.152-1.154c.99.52 1.656 1.313 1.969 2.389l-.018-.005-.013.021M219.547 243.425a4.183 4.183 0 0 1-.868-.48 3.655 3.655 0 0 1-.655-.59l1.357-.18.166 1.25M219.326 241.787l-1.329.174a3.906 3.906 0 0 1 1.171-1.38l.158 1.206M223.805 242.816l-.164-1.202 1.271-.168a3.665 3.665 0 0 1-.478.747 4.07 4.07 0 0 1-.629.623M224.816 241.052l-1.238.166-.152-1.153a3.633 3.633 0 0 1 1.39.987M209.183 245.397c-1.104.115-2.067-.689-2.181-1.819-.108-1.047.684-2.027 1.72-2.136 1.152-.116 2.1.661 2.218 1.823.105 1.038-.707 2.021-1.757 2.132m1.309.811c1.299-.812 1.809-2.507 1.222-3.988-.499-1.258-1.851-2.296-3.528-1.919-.489.109-.927.344-1.346.61-.919.591-1.693 1.351-2.398 2.175-.283.336-.555.687-.837 1.036l.101.087c.474.335.936.688 1.426 1.002.906.595 1.863 1.078 2.93 1.328.85.199 1.669.145 2.43-.331"/>
  <path fill="#a6a4a4" d="M210.201 139.94c.783 4.813 1.494 9.633 2.195 14.455l2.012 14.479 1.857 14.498c.594 4.839 1.175 9.675 1.674 14.524-.781-4.809-1.494-9.631-2.193-14.454l-2.012-14.479-1.857-14.498c-.59-4.836-1.172-9.675-1.676-14.525M206.027 140.501c.462 2.395.851 4.801 1.229 7.205.372 2.41.694 4.824 1.046 7.235.298 2.422.621 4.836.889 7.257.27 2.419.524 4.847.706 7.279-.464-2.396-.848-4.803-1.227-7.211-.377-2.405-.694-4.821-1.044-7.231-.297-2.418-.623-4.834-.891-7.258-.268-2.419-.524-4.845-.708-7.276M196.303 141.798c.784 4.812 1.495 9.633 2.195 14.454l2.016 14.479 1.859 14.5c.584 4.835 1.168 9.673 1.674 14.521-.787-4.811-1.5-9.632-2.197-14.453l-2.012-14.479-1.857-14.498c-.594-4.837-1.172-9.676-1.678-14.524M192.131 142.356c.463 2.395.853 4.802 1.227 7.209.378 2.41.699 4.825 1.046 7.236.297 2.416.626 4.832.892 7.253.27 2.419.525 4.846.708 7.275-.464-2.393-.853-4.799-1.226-7.208-.379-2.406-.699-4.822-1.051-7.232-.291-2.418-.617-4.832-.888-7.254-.267-2.422-.523-4.846-.708-7.279M225.643 255.525a821.578 821.578 0 0 1 2.191 14.451l2.016 14.479 1.856 14.499c.593 4.841 1.172 9.677 1.677 14.524-.787-4.809-1.5-9.63-2.197-14.454l-2.016-14.479-1.854-14.498c-.587-4.836-1.17-9.675-1.673-14.522M221.468 256.082c.459 2.395.851 4.803 1.228 7.209.377 2.409.693 4.822 1.044 7.233.296 2.418.624 4.831.894 7.256.268 2.423.523 4.846.705 7.277-.462-2.396-.85-4.8-1.229-7.209-.375-2.407-.696-4.821-1.041-7.233-.296-2.419-.624-4.833-.891-7.256-.272-2.421-.528-4.845-.71-7.277M211.744 257.38a828.512 828.512 0 0 1 2.192 14.454l2.014 14.477 1.86 14.502c.588 4.837 1.17 9.676 1.676 14.521-.785-4.81-1.498-9.631-2.2-14.453l-2.012-14.479-1.854-14.498c-.588-4.837-1.171-9.675-1.676-14.524M207.57 257.94c.461 2.391.852 4.8 1.228 7.204.376 2.409.698 4.824 1.046 7.236.297 2.42.623 4.835.889 7.257.268 2.419.525 4.845.71 7.278-.466-2.4-.853-4.806-1.229-7.211-.376-2.405-.693-4.821-1.046-7.231-.294-2.421-.616-4.833-.888-7.258a203.419 203.419 0 0 1-.71-7.275"/>
  <path fill="#214248" d="m288.161 230.293-8.302-141.699-28.716 1.655 8.778 149.839 28.24-9.795"/>
  <path fill="#c7c8c9" d="m178.623 266.334-98.806 5.788-5.788-98.808 98.806-5.788 5.788 98.808"/>
  <path fill="#fff" d="M145.353 205.357c.642 10.939-7.708 20.326-18.646 20.968-10.939.641-20.329-7.708-20.97-18.647-.641-10.94 7.709-20.328 18.648-20.969s20.327 7.708 20.968 18.648M162.975 259.16l.472 8.056-68.454 4.01-.472-8.055c-1.105-18.87 13.298-35.131 32.212-36.238 18.917-1.109 35.136 13.358 36.242 32.227"/>
  <path fill="#36565f" d="m59.303 293.59-45.471 2.663-.181-3.081 45.471-2.664.181 3.082M227.287 167.427l-45.474 2.663-.18-3.079 45.474-2.664.18 3.08"/>
  <path fill="#a6a4a4" d="M11.172 250.841c2.426-.284 4.852-.492 7.283-.687 2.428-.2 4.861-.336 7.293-.508 2.43-.114 4.862-.262 7.298-.35 2.437-.088 4.871-.165 7.312-.166-2.424.287-4.851.492-7.281.69-2.428.198-4.862.337-7.289.506-2.435.116-4.867.263-7.303.348-2.436.09-4.871.165-7.313.167M11.664 259.246c4.855-.425 9.718-.775 14.58-1.117l14.586-.931 14.596-.779c4.867-.228 9.734-.449 14.606-.592-4.855.428-9.716.778-14.575 1.114l-14.588.936-14.595.773c-4.868.233-9.737.452-14.61.596M11.91 263.45c4.856-.426 9.718-.777 14.58-1.116l14.586-.936 14.596-.775c4.867-.229 9.734-.451 14.607-.592-4.855.424-9.716.777-14.576 1.116l-14.588.932-14.594.777c-4.869.229-9.738.449-14.611.594M12.156 267.653c4.856-.429 9.718-.778 14.58-1.117l14.585-.936 14.597-.776c4.867-.229 9.734-.449 14.607-.591-4.855.424-9.716.778-14.577 1.116l-14.587.932-14.595.774c-4.868.232-9.737.452-14.61.598M12.402 271.855c4.856-.429 9.718-.778 14.58-1.116l14.586-.937 14.596-.775c4.867-.23 9.734-.449 14.607-.592-4.855.426-9.716.777-14.576 1.116l-14.588.936-14.594.774c-4.868.228-9.738.45-14.611.594M12.648 276.057c2.426-.283 4.854-.491 7.283-.688 2.428-.199 4.861-.339 7.293-.506 2.43-.118 4.863-.26 7.299-.349 2.437-.091 4.871-.165 7.311-.166-2.423.282-4.85.49-7.28.688-2.429.194-4.862.335-7.29.506-2.434.114-4.867.261-7.302.346-2.437.09-4.87.167-7.314.169M182.25 177.566c4.861-.426 9.72-.775 14.582-1.116l14.586-.935 14.599-.775c4.866-.229 9.731-.448 14.606-.593-4.857.426-9.717.777-14.576 1.119l-14.59.929-14.594.774c-4.869.232-9.734.454-14.613.597M182.496 181.767c4.862-.422 9.72-.775 14.582-1.114l14.586-.934 14.598-.776c4.867-.23 9.733-.447 14.606-.595-4.856.428-9.716.779-14.575 1.119l-14.589.931-14.595.774c-4.87.231-9.734.452-14.613.595M182.742 185.972c4.862-.427 9.719-.778 14.583-1.114l14.585-.935 14.599-.778c4.866-.231 9.732-.449 14.606-.592-4.857.423-9.716.776-14.576 1.115l-14.59.932-14.594.778c-4.869.231-9.735.446-14.613.594M182.988 190.173c4.861-.426 9.721-.776 14.582-1.116l14.586-.932 14.599-.777c4.866-.23 9.732-.45 14.606-.594-4.857.43-9.716.777-14.576 1.116l-14.589.935-14.595.774c-4.869.232-9.734.448-14.613.594M183.235 194.375c2.425-.283 4.857-.489 7.284-.687 2.428-.198 4.863-.337 7.293-.507 2.434-.115 4.864-.262 7.301-.349 2.434-.09 4.868-.166 7.31-.168-2.425.287-4.853.493-7.279.692-2.431.193-4.861.336-7.29.505-2.434.114-4.869.259-7.303.347s-4.874.165-7.316.167M183.728 202.782c4.861-.429 9.72-.776 14.583-1.116l14.584-.935 14.6-.776c4.865-.229 9.731-.45 14.605-.592-4.857.423-9.716.775-14.575 1.115l-14.59.934-14.595.773c-4.869.233-9.735.451-14.612.597M183.975 206.982c4.86-.423 9.719-.775 14.581-1.114l14.586-.935 14.598-.778c4.866-.228 9.732-.448 14.606-.592-4.857.428-9.716.776-14.575 1.115l-14.589.934-14.596.776c-4.869.231-9.734.453-14.611.594M184.221 211.188c4.861-.425 9.719-.778 14.582-1.117l14.584-.936 14.6-.777c4.865-.228 9.732-.445 14.605-.589-4.857.425-9.716.773-14.576 1.114l-14.589.933-14.595.776c-4.869.229-9.734.447-14.611.596M184.467 215.389c4.861-.426 9.719-.775 14.582-1.113l14.584-.938 14.6-.773c4.865-.23 9.731-.453 14.605-.594-4.857.428-9.715.776-14.574 1.116l-14.59.932-14.595.776c-4.87.23-9.735.451-14.612.594M184.713 219.592c2.425-.282 4.857-.492 7.284-.686 2.429-.203 4.862-.339 7.293-.51 2.433-.116 4.864-.264 7.3-.349 2.434-.088 4.869-.165 7.311-.167-2.426.282-4.853.491-7.279.693-2.43.192-4.861.332-7.292.5-2.433.116-4.866.263-7.302.348-2.434.09-4.875.167-7.315.171M185.205 227.995c4.861-.425 9.719-.773 14.582-1.116l14.585-.936 14.599-.777c4.867-.227 9.732-.445 14.605-.59-4.856.426-9.715.776-14.575 1.115l-14.589.937-14.595.774c-4.869.23-9.735.448-14.612.593M185.451 232.198c4.861-.428 9.719-.774 14.582-1.119l14.585-.93 14.599-.78c4.866-.226 9.732-.448 14.606-.59-4.857.425-9.716.776-14.575 1.115l-14.59.936-14.595.774c-4.869.232-9.735.45-14.612.594M185.697 236.4c4.861-.425 9.719-.774 14.582-1.118l14.585-.933 14.599-.777c4.866-.227 9.732-.447 14.606-.592-4.857.426-9.716.777-14.575 1.116l-14.59.934-14.595.776c-4.87.23-9.734.449-14.612.594M185.943 240.603c2.425-.284 4.857-.493 7.285-.688 2.428-.199 4.863-.335 7.293-.507 2.433-.115 4.863-.263 7.299-.35 2.435-.088 4.869-.166 7.311-.166-2.424.286-4.852.492-7.279.69-2.43.197-4.861.337-7.291.506-2.433.115-4.867.262-7.303.348-2.433.088-4.873.164-7.315.167M186.436 249.008c4.861-.426 9.719-.775 14.582-1.118l14.586-.93 14.598-.78c4.867-.227 9.732-.448 14.606-.591-4.856.428-9.716.777-14.575 1.113l-14.59.937-14.595.773c-4.868.233-9.735.45-14.612.596M186.682 253.212c4.861-.426 9.72-.777 14.582-1.116l14.586-.936 14.598-.776c4.867-.229 9.732-.45 14.607-.592-4.858.425-9.717.778-14.576 1.116l-14.59.932-14.594.778c-4.87.229-9.734.447-14.613.594M186.928 257.414c4.861-.428 9.72-.777 14.582-1.116l14.586-.936 14.598-.777c4.867-.229 9.732-.447 14.607-.59-4.858.424-9.717.777-14.576 1.115l-14.59.933-14.594.773c-4.869.233-9.735.452-14.613.598M187.174 261.616c4.861-.428 9.72-.778 14.582-1.116l14.586-.936 14.598-.776c4.867-.229 9.733-.448 14.606-.591-4.856.425-9.716.777-14.575 1.115l-14.589.936-14.595.774c-4.869.228-9.734.45-14.613.594M187.42 265.818c2.426-.284 4.857-.492 7.285-.688 2.428-.2 4.863-.34 7.293-.507 2.433-.117 4.864-.26 7.301-.349 2.434-.09 4.868-.165 7.309-.166-2.424.283-4.852.491-7.279.688-2.43.195-4.86.336-7.291.507-2.433.114-4.867.26-7.302.345-2.433.091-4.875.168-7.316.17"/>
  <path fill="#eeeeeb" d="m119.813 304.695-91.563 5.364-.249-4.254 91.562-5.365.25 4.255"/>
  <path fill="#f9c529" d="m94.447 306.182-66.197 3.877-.249-4.254 66.196-3.878.25 4.255"/>
  <path fill="#eeeeeb" d="m120.457 315.691-91.562 5.365-.249-4.251 91.561-5.365.25 4.251"/>
  <path fill="#f9c529" d="m112.858 316.136-83.963 4.92-.249-4.251 83.963-4.919.249 4.25"/>
  <path fill="#eeeeeb" d="m121.101 326.688-91.563 5.364-.249-4.253 91.563-5.364.249 4.253"/>
  <path fill="#f9c529" d="m100.896 327.871-71.358 4.181-.249-4.253 71.357-4.181.25 4.253"/>
  <path fill="#eeeeeb" d="m121.745 337.687-91.562 5.364-.249-4.254 91.562-5.364.249 4.254"/>
  <path fill="#f9c529" d="m108.863 338.441-78.68 4.61-.249-4.254 78.68-4.609.249 4.253"/>
  <path fill="#eeeeeb" d="m122.389 348.684-91.563 5.364-.248-4.249 91.563-5.365.248 4.25"/>
  <path fill="#f9c529" d="m116.939 349.003-86.113 5.045-.248-4.249 86.113-5.045.248 4.249M21.631 311.757l-6.867.402-.403-6.866 6.868-.402.402 6.866"/>
  <path fill="#36565f" d="m22.275 322.755-6.867.401-.402-6.867 6.867-.402.402 6.868"/>
  <path fill="#c7c8c9" d="m22.92 333.749-6.869.402-.401-6.864 6.868-.402.402 6.864"/>
  <path fill="#f9c529" d="m23.564 344.748-6.869.402-.401-6.865 6.868-.402.402 6.865"/>
  <path fill="#00292f" d="m24.208 355.746-6.868.402-.402-6.862 6.869-.402.401 6.862"/>
  <path fill="#36565f" d="m202.014 285.229-58.341 3.417-.181-3.08 58.34-3.418.182 3.081"/>
  <path fill="#c7c8c9" d="m166.55 299.294-22.177 1.3-.18-3.078 22.176-1.299.181 3.077M168.084 325.479l-22.177 1.298-.18-3.077 22.176-1.299.181 3.078M169.617 351.666l-22.176 1.3-.181-3.079 22.178-1.3.179 3.079"/>
  <path fill="#a6a4a4" d="M189.072 296.428c4.855-.425 9.716-.775 14.579-1.116l14.585-.932 14.6-.778c4.865-.23 9.733-.449 14.604-.594-4.854.43-9.716.778-14.574 1.119l-14.59.932-14.595.774c-4.868.232-9.738.451-14.609.595M189.319 300.633c4.854-.425 9.716-.777 14.578-1.116l14.585-.936 14.599-.774c4.866-.23 9.734-.452 14.606-.593-4.855.426-9.717.776-14.575 1.116l-14.589.932-14.596.778c-4.868.228-9.738.449-14.608.593M189.565 304.832c4.854-.422 9.716-.774 14.579-1.114l14.584-.935 14.6-.775c4.865-.23 9.733-.447 14.605-.595-4.855.429-9.717.78-14.575 1.119l-14.589.935-14.596.773c-4.868.234-9.737.451-14.608.592M189.812 309.036c2.046-.26 4.097-.447 6.147-.621 2.05-.177 4.107-.294 6.161-.442 2.054-.092 4.111-.213 6.168-.283 2.062-.063 4.115-.119 6.179-.098-2.047.263-4.093.449-6.147.623-2.052.176-4.108.295-6.159.438-2.057.094-4.114.218-6.171.284-2.057.064-4.117.121-6.178.099M190.611 322.689c4.854-.424 9.716-.774 14.578-1.114l14.586-.935 14.599-.779c4.865-.228 9.733-.446 14.604-.591-4.854.429-9.716.774-14.574 1.119l-14.59.932-14.594.772c-4.868.231-9.738.452-14.609.596M190.857 326.892c4.854-.421 9.716-.773 14.578-1.116l14.586-.934 14.598-.776c4.866-.228 9.734-.448 14.605-.593-4.854.428-9.715.775-14.574 1.119l-14.59.931-14.594.777c-4.868.226-9.737.448-14.609.592M191.104 331.094c4.854-.422 9.716-.773 14.578-1.116l14.586-.934 14.599-.776c4.865-.23 9.733-.449 14.605-.594-4.854.43-9.716.778-14.575 1.118l-14.589.934-14.595.776c-4.869.228-9.738.45-14.609.592M191.35 335.297c2.045-.262 4.098-.446 6.148-.621 2.049-.18 4.105-.293 6.16-.438 2.055-.096 4.111-.219 6.169-.287 2.062-.063 4.114-.119 6.179-.098-2.047.262-4.094.449-6.148.621-2.051.176-4.107.294-6.159.441-2.058.09-4.114.218-6.171.281-2.056.069-4.116.12-6.178.101M192.149 348.948c4.854-.423 9.716-.774 14.579-1.113l14.584-.938 14.6-.773c4.865-.233 9.734-.448 14.605-.595-4.854.428-9.716.78-14.574 1.117l-14.59.937-14.595.772c-4.868.231-9.737.452-14.609.593M192.396 353.151c4.854-.424 9.715-.772 14.578-1.114l14.585-.934 14.599-.776c4.865-.231 9.734-.449 14.605-.595-4.854.431-9.716.777-14.574 1.119l-14.59.934-14.595.774c-4.868.23-9.737.451-14.608.592M192.643 357.355c4.854-.426 9.715-.774 14.578-1.116l14.586-.934 14.598-.78c4.865-.224 9.734-.445 14.605-.589-4.854.425-9.716.775-14.574 1.117l-14.59.934-14.595.774c-4.869.229-9.738.45-14.608.594M192.889 361.556c2.045-.259 4.097-.445 6.146-.62 2.051-.175 4.107-.291 6.161-.441 2.055-.091 4.112-.215 6.169-.281 2.062-.066 4.115-.12 6.179-.102-2.048.264-4.093.451-6.147.624-2.051.176-4.108.294-6.16.44-2.057.095-4.113.219-6.17.282-2.057.067-4.117.12-6.178.098M193.688 375.213c4.854-.425 9.716-.777 14.578-1.116l14.585-.937 14.599-.773c4.865-.23 9.734-.453 14.605-.593-4.854.424-9.716.774-14.574 1.113l-14.589.935-14.596.774c-4.868.232-9.737.451-14.608.597M193.935 379.412c4.854-.426 9.716-.774 14.578-1.117l14.585-.93 14.6-.78c4.865-.228 9.733-.448 14.604-.593-4.854.426-9.716.78-14.575 1.116l-14.589.936-14.595.774c-4.869.232-9.738.448-14.608.594"/>
  <path fill="#f9c529" d="m177.318 296.067.953 13.249.877 13.255 1.636 26.52.014 1.636.677 13.264.601 13.274-.952-13.253-.878-13.254-.176-1.625-1.469-26.529-.677-13.266-.606-13.271"/>
  <path fill="#f9c529" d="M178.749 297.032a1.374 1.374 0 0 1-1.288 1.451 1.377 1.377 0 0 1-1.449-1.291 1.37 1.37 0 0 1 2.737-.16M180.287 323.294a1.37 1.37 0 0 1-2.736.161 1.371 1.371 0 0 1 2.736-.161M181.826 349.553a1.373 1.373 0 0 1-1.289 1.451 1.372 1.372 0 0 1-1.447-1.291 1.369 1.369 0 0 1 1.287-1.444 1.369 1.369 0 0 1 1.449 1.284M183.364 375.817a1.37 1.37 0 1 1-2.737.157 1.37 1.37 0 0 1 2.737-.157"/>
  <path fill="#36565f" d="m262.438 226.003-8.301-141.7-26.312 1.839 8.779 149.843 25.834-9.982"/>
  <path fill="#fff" d="M270.126 387.521.109 352.541 45.752.256l270.015 34.982-45.641 352.283z"/>
  <path fill="#00292f" d="M270.126 387.521 315.635 35.22l.113.146L45.721.48l.252-.196L.21 352.553l-.089-.112 270.005 35.08zm0 0L.1 352.641l-.1-.019.016-.095L45.526.227 45.555 0l.227.031L315.78 35.112l.132.017-.019.127-45.767 352.265z"/>
  <path fill="#f9c529" d="M271.212 379.118 1.199 344.137l-1.09 8.404 270.017 34.98 1.086-8.403z"/>
  <path fill="#eeeeeb" d="m51.484 185.096-19.546-2.533L54.303 9.907l19.554 2.533-22.373 172.656zM261.563 377.945l-19.547-2.534 22.363-172.656 19.554 2.534-22.37 172.656z"/>
  <path fill="#00292f" d="M315.767 35.238 45.752.256 44.66 8.659 314.677 43.64l1.09-8.402z"/>
  <path fill="#c7c8c9" d="m208.779 186.631-98.156-12.715 12.718-98.155 98.153 12.718-12.715 98.152z"/>
  <path fill="#fff" d="M187.449 120.527c-1.407 10.867-11.359 18.537-22.226 17.128-10.87-1.408-18.538-11.361-17.132-22.229 1.407-10.869 11.361-18.539 22.229-17.131 10.873 1.408 18.539 11.36 17.129 22.232zM194.738 176.667l-1.035 8.006-67.998-8.811 1.037-8.005c2.425-18.741 19.603-32.037 38.396-29.602 18.791 2.434 32.028 19.669 29.6 38.412z"/>
  <path fill="#36565f" d="M293.682 54.993 62.069 24.99l-3.521 27.194L290.156 82.19l3.526-27.197zM101.392 76.029l-45.173-5.854.392-3.06 45.176 5.851-.395 3.063zM86.469 191.186 41.3 185.333l.395-3.06 45.172 5.855-.398 3.058zM70.633 313.426l-45.168-5.852.394-3.057 45.171 5.85-.397 3.059zM77.021 264.105l-45.171-5.85.396-3.061 45.174 5.851-.399 3.06zM275.012 98.521l-45.168-5.854.394-3.057 45.171 5.854-.397 3.057z"/>
  <path fill="#a6a4a4" d="M55.258 77.601c4.848.487 9.691 1.049 14.527 1.618l14.506 1.8 14.486 1.956c4.826.679 9.651 1.368 14.462 2.138-4.849-.485-9.688-1.046-14.529-1.619l-14.506-1.798-14.485-1.958c-4.824-.68-9.651-1.375-14.461-2.137zM54.714 81.776c4.852.482 9.692 1.047 14.53 1.617l14.508 1.8 14.488 1.954c4.824.682 9.645 1.372 14.463 2.142-4.855-.488-9.695-1.049-14.535-1.62L83.662 85.87 69.18 83.911c-4.831-.679-9.652-1.37-14.466-2.135zM54.174 85.95c4.852.484 9.689 1.046 14.529 1.617l14.509 1.801 14.481 1.955c4.826.683 9.652 1.371 14.471 2.14-4.859-.487-9.696-1.048-14.535-1.62l-14.506-1.798-14.484-1.956c-4.83-.682-9.65-1.375-14.465-2.139zM53.635 90.124c4.848.488 9.689 1.051 14.527 1.619l14.509 1.798 14.485 1.956c4.822.682 9.647 1.375 14.459 2.143-4.848-.488-9.686-1.051-14.529-1.621L82.583 94.22l-14.489-1.96c-4.821-.68-9.649-1.372-14.459-2.136zM53.092 94.299c2.436.175 4.857.421 7.281.682 2.424.258 4.84.571 7.26.86 2.413.337 4.827.646 7.238 1.015 2.409.368 4.816.745 7.213 1.2-2.434-.172-4.857-.419-7.281-.678-2.422-.26-4.84-.573-7.256-.863-2.418-.341-4.832-.647-7.242-1.018-2.408-.366-4.811-.745-7.213-1.198zM52.009 102.647c4.853.489 9.689 1.05 14.532 1.62l14.504 1.8 14.486 1.955c4.824.684 9.65 1.372 14.464 2.138-4.851-.483-9.692-1.044-14.528-1.615l-14.507-1.8-14.487-1.957c-4.824-.685-9.649-1.372-14.464-2.141zM51.469 106.825c4.854.485 9.691 1.046 14.529 1.617l14.508 1.798 14.485 1.957c4.825.681 9.647 1.372 14.465 2.139-4.853-.482-9.696-1.046-14.53-1.616l-14.508-1.801-14.484-1.958c-4.828-.68-9.651-1.372-14.465-2.136zM50.934 110.999c4.846.484 9.688 1.048 14.528 1.618l14.502 1.8 14.487 1.955c4.826.683 9.65 1.371 14.461 2.139-4.849-.486-9.688-1.047-14.529-1.616l-14.504-1.8-14.488-1.959c-4.825-.681-9.649-1.373-14.457-2.137zM50.387 115.173c4.852.488 9.691 1.047 14.53 1.619l14.508 1.799 14.487 1.957c4.82.681 9.648 1.37 14.461 2.137-4.85-.483-9.691-1.048-14.532-1.617l-14.503-1.8-14.486-1.955c-4.829-.683-9.651-1.375-14.465-2.14zM49.851 119.348c2.431.174 4.856.421 7.278.682 2.428.257 4.842.575 7.257.859 2.416.341 4.829.65 7.24 1.017 2.409.367 4.815.746 7.211 1.198-2.432-.174-4.856-.418-7.28-.677-2.425-.262-4.839-.575-7.26-.861-2.41-.344-4.825-.649-7.236-1.02-2.409-.367-4.815-.745-7.21-1.198zM48.766 127.696c4.848.486 9.691 1.05 14.53 1.621l14.503 1.799 14.49 1.956c4.825.681 9.648 1.371 14.463 2.139-4.853-.487-9.694-1.047-14.531-1.616l-14.508-1.804-14.486-1.956c-4.823-.681-9.649-1.371-14.461-2.139zM48.225 131.874c4.852.484 9.689 1.046 14.532 1.615l14.503 1.803 14.488 1.954c4.824.682 9.65 1.372 14.461 2.14-4.851-.486-9.691-1.047-14.527-1.619l-14.508-1.798-14.485-1.956c-4.826-.683-9.653-1.374-14.464-2.139zM47.681 136.046c4.854.488 9.698 1.049 14.532 1.619l14.506 1.8 14.486 1.956c4.826.682 9.651 1.371 14.463 2.139-4.848-.486-9.689-1.047-14.527-1.617l-14.506-1.799-14.488-1.957c-4.826-.683-9.649-1.374-14.466-2.141zM47.143 140.221c2.434.174 4.861.423 7.283.682 2.424.256 4.838.573 7.26.859 2.408.34 4.826.651 7.235 1.018 2.407.368 4.815.743 7.216 1.198-2.436-.173-4.857-.419-7.282-.676-2.425-.26-4.843-.577-7.261-.866-2.412-.339-4.825-.649-7.236-1.015-2.411-.367-4.815-.747-7.215-1.2zM46.059 148.571c4.852.489 9.692 1.046 14.531 1.62l14.508 1.798 14.486 1.957c4.824.68 9.648 1.369 14.461 2.136-4.85-.485-9.689-1.046-14.528-1.617l-14.505-1.799-14.489-1.956c-4.826-.682-9.647-1.373-14.464-2.139zM45.521 152.745c4.853.486 9.688 1.047 14.529 1.617l14.505 1.802 14.486 1.953c4.825.685 9.649 1.375 14.464 2.14-4.85-.483-9.688-1.047-14.526-1.615l-14.511-1.802-14.489-1.955c-4.821-.683-9.641-1.37-14.458-2.14zM44.981 156.921c4.851.488 9.685 1.047 14.528 1.618l14.506 1.799 14.486 1.956c4.823.681 9.65 1.37 14.463 2.138-4.854-.483-9.69-1.046-14.531-1.618l-14.507-1.799-14.481-1.957c-4.831-.682-9.65-1.371-14.464-2.137zM44.438 161.094c4.853.489 9.69 1.051 14.53 1.621l14.509 1.801 14.485 1.952c4.823.685 9.646 1.373 14.46 2.139-4.851-.483-9.688-1.044-14.527-1.617l-14.506-1.8-14.485-1.957c-4.828-.679-9.652-1.372-14.466-2.139zM43.898 165.271c2.437.17 4.855.422 7.279.679 2.425.257 4.841.574 7.261.863 2.411.336 4.83.646 7.237 1.012 2.41.371 4.818.747 7.211 1.199-2.428-.171-4.857-.418-7.279-.679-2.426-.258-4.838-.572-7.26-.861-2.409-.339-4.828-.645-7.236-1.015-2.408-.365-4.813-.746-7.213-1.198zM228.879 100.095c4.852.486 9.691 1.045 14.531 1.616l14.506 1.799 14.488 1.96c4.821.678 9.645 1.372 14.456 2.135-4.851-.481-9.691-1.046-14.526-1.615l-14.506-1.801-14.487-1.958c-4.825-.681-9.646-1.371-14.462-2.136zM228.338 104.268c4.851.486 9.693 1.049 14.531 1.619l14.504 1.8 14.485 1.954c4.828.683 9.651 1.373 14.463 2.139-4.85-.484-9.687-1.044-14.527-1.617l-14.508-1.8-14.487-1.955c-4.822-.682-9.647-1.373-14.461-2.14zM227.8 108.442c4.847.485 9.688 1.046 14.527 1.62l14.505 1.801 14.491 1.952c4.822.682 9.646 1.374 14.46 2.142-4.853-.486-9.691-1.047-14.53-1.617l-14.508-1.803-14.483-1.956c-4.825-.683-9.653-1.371-14.462-2.139zM227.257 112.617c4.851.489 9.691 1.049 14.528 1.621l14.507 1.798 14.487 1.956c4.824.683 9.646 1.372 14.461 2.139-4.852-.485-9.689-1.046-14.531-1.617l-14.502-1.799-14.488-1.96c-4.828-.679-9.649-1.371-14.462-2.138zM226.716 116.794c2.434.174 4.859.42 7.284.68 2.422.255 4.836.573 7.256.859 2.41.34 4.83.651 7.236 1.016 2.412.368 4.817.748 7.217 1.2-2.438-.17-4.861-.421-7.281-.679-2.426-.258-4.84-.574-7.258-.863-2.415-.339-4.834-.648-7.24-1.015-2.409-.368-4.816-.749-7.214-1.198zM225.633 125.145c4.85.484 9.689 1.045 14.53 1.614l14.505 1.801 14.488 1.956c4.826.682 9.651 1.373 14.464 2.138-4.85-.481-9.692-1.042-14.535-1.617l-14.503-1.799-14.485-1.956c-4.826-.683-9.65-1.374-14.464-2.137zM225.094 129.317c4.85.486 9.689 1.047 14.529 1.619l14.507 1.801 14.483 1.952c4.828.684 9.65 1.375 14.465 2.141-4.849-.487-9.691-1.047-14.531-1.619l-14.504-1.798-14.488-1.957c-4.826-.683-9.647-1.371-14.461-2.139zM224.551 133.491c4.852.489 9.692 1.048 14.532 1.62l14.504 1.8 14.487 1.954c4.827.682 9.648 1.37 14.463 2.14-4.851-.486-9.689-1.049-14.532-1.619l-14.503-1.8-14.486-1.956c-4.826-.682-9.652-1.371-14.465-2.139zM224.01 137.665c4.853.486 9.695 1.051 14.529 1.621l14.51 1.8 14.484 1.954c4.824.68 9.646 1.374 14.462 2.138-4.848-.481-9.689-1.044-14.53-1.615l-14.505-1.801-14.485-1.958c-4.824-.681-9.647-1.369-14.465-2.139zM223.473 141.842c2.433.172 4.858.419 7.279.682 2.421.256 4.841.573 7.261.858 2.41.34 4.826.648 7.231 1.017 2.416.367 4.818.743 7.219 1.198-2.434-.172-4.859-.419-7.28-.678-2.427-.26-4.841-.574-7.26-.863-2.411-.339-4.829-.645-7.237-1.015-2.412-.368-4.819-.744-7.213-1.199zM222.391 150.189c4.85.49 9.689 1.049 14.527 1.622l14.508 1.795 14.489 1.958c4.819.681 9.645 1.372 14.457 2.139-4.847-.483-9.688-1.048-14.528-1.617l-14.507-1.803-14.487-1.956c-4.825-.681-9.647-1.368-14.459-2.138zM221.849 154.366c4.851.485 9.69 1.048 14.526 1.62l14.51 1.797 14.485 1.955c4.825.683 9.649 1.373 14.461 2.139-4.851-.485-9.688-1.045-14.528-1.616l-14.509-1.8-14.481-1.96c-4.828-.679-9.652-1.367-14.464-2.135zM221.307 158.541c4.849.485 9.688 1.046 14.529 1.619l14.506 1.798 14.488 1.954c4.823.684 9.648 1.376 14.462 2.141-4.85-.483-9.688-1.044-14.532-1.618l-14.504-1.8-14.486-1.956c-4.826-.683-9.649-1.375-14.463-2.138zM220.766 162.715c2.434.173 4.858.424 7.283.68 2.424.258 4.839.577 7.259.862 2.413.337 4.83.648 7.238 1.016 2.406.368 4.813.745 7.213 1.2-2.434-.173-4.858-.421-7.282-.682-2.421-.255-4.84-.571-7.257-.86-2.414-.343-4.829-.648-7.238-1.019-2.412-.364-4.82-.745-7.216-1.197zM219.682 171.065c4.85.487 9.691 1.046 14.533 1.618l14.504 1.8 14.49 1.955c4.821.683 9.647 1.37 14.46 2.139-4.851-.485-9.69-1.048-14.527-1.617l-14.509-1.802-14.487-1.956c-4.826-.68-9.648-1.374-14.464-2.137zM219.146 175.237c4.851.489 9.688 1.049 14.527 1.624l14.509 1.8 14.483 1.951c4.827.683 9.648 1.372 14.466 2.14-4.854-.486-9.695-1.045-14.531-1.619l-14.506-1.8-14.486-1.955c-4.827-.681-9.653-1.373-14.462-2.141zM218.604 179.412c4.85.488 9.688 1.049 14.529 1.623l14.507 1.796 14.483 1.958c4.827.681 9.653 1.373 14.465 2.14-4.85-.485-9.691-1.048-14.529-1.619l-14.506-1.8-14.49-1.959c-4.824-.679-9.647-1.371-14.459-2.139zM218.063 183.592c4.85.487 9.691 1.044 14.531 1.617l14.507 1.801 14.485 1.954c4.821.68 9.646 1.372 14.459 2.136-4.85-.483-9.689-1.045-14.527-1.616l-14.506-1.802-14.485-1.954c-4.826-.679-9.648-1.372-14.464-2.136zM217.521 187.762c2.432.179 4.855.423 7.283.682 2.425.258 4.838.573 7.256.86 2.412.34 4.829.65 7.239 1.017 2.407.369 4.816.747 7.216 1.2-2.438-.172-4.864-.419-7.286-.68-2.419-.259-4.835-.575-7.253-.859-2.414-.345-4.836-.651-7.242-1.02-2.407-.367-4.814-.744-7.213-1.2z"/>
  <path fill="#eeeeeb" d="m143.852 213.364-90.959-11.783.55-4.223 90.957 11.785-.548 4.221z"/>
  <path fill="#f9c529" d="m118.655 210.1-65.762-8.519.55-4.223 65.758 8.519-.546 4.223z"/>
  <path fill="#eeeeeb" d="M142.436 224.291 51.48 212.506l.547-4.224 90.954 11.784-.545 4.225z"/>
  <path fill="#f9c529" d="M134.891 223.313 51.48 212.506l.547-4.224 83.408 10.807-.544 4.224z"/>
  <path fill="#eeeeeb" d="m141.022 235.216-90.958-11.784.548-4.223 90.956 11.784-.546 4.223z"/>
  <path fill="#f9c529" d="m120.947 232.614-70.883-9.182.548-4.223 70.885 9.184-.55 4.221z"/>
  <path fill="#eeeeeb" d="m139.605 246.141-90.958-11.785.553-4.221 90.953 11.781-.548 4.225z"/>
  <path fill="#f9c529" d="m126.813 244.485-78.166-10.129.553-4.221 78.16 10.123-.547 4.227z"/>
  <path fill="#eeeeeb" d="m138.194 257.068-90.958-11.787.547-4.221 90.956 11.785-.545 4.223z"/>
  <path fill="#f9c529" d="m132.779 256.363-85.543-11.082.547-4.221 85.543 11.082-.547 4.221zM46.072 202.018l-6.818-.882.884-6.821 6.819.882-.885 6.821z"/>
  <path fill="#36565f" d="m44.658 212.941-6.822-.881.882-6.823 6.819.885-.879 6.819z"/>
  <path fill="#c7c8c9" d="m43.241 223.869-6.821-.883.885-6.818 6.82.879-.884 6.822z"/>
  <path fill="#f9c529" d="m41.826 234.795-6.823-.885.886-6.82 6.822.885-.885 6.82z"/>
  <path fill="#00292f" d="m40.411 245.722-6.821-.885.883-6.821 6.821.881-.883 6.825z"/>
  <path fill="#36565f" d="m228.24 209.551-57.957-7.51.395-3.055 57.96 7.504-.398 3.061z"/>
  <path fill="#c7c8c9" d="m190.774 216.765-22.026-2.855.395-3.056 22.031 2.855-.4 3.056zM187.405 242.779l-22.028-2.855.394-3.054 22.033 2.853-.399 3.056zM184.035 268.794l-22.031-2.855.396-3.056 22.034 2.852-.399 3.059zM180.666 294.809l-22.035-2.853.398-3.059 22.032 2.851-.395 3.061z"/>
  <path fill="#a6a4a4" d="M213.439 218.146c4.849.485 9.692 1.045 14.528 1.617l14.508 1.8 14.487 1.96c4.825.676 9.646 1.368 14.461 2.138-4.848-.488-9.692-1.049-14.527-1.623l-14.508-1.796-14.484-1.958c-4.828-.68-9.654-1.373-14.465-2.138zM212.898 222.321c4.852.486 9.688 1.049 14.527 1.621l14.508 1.796 14.488 1.959c4.826.679 9.646 1.372 14.461 2.135-4.853-.484-9.688-1.045-14.529-1.616l-14.505-1.801-14.487-1.954c-4.827-.682-9.645-1.376-14.463-2.14zM212.36 226.496c4.847.485 9.688 1.046 14.526 1.619l14.509 1.797 14.483 1.958c4.828.681 9.65 1.373 14.461 2.139-4.847-.484-9.689-1.048-14.528-1.615l-14.504-1.804-14.489-1.955c-4.822-.681-9.648-1.373-14.458-2.139zM211.817 230.671c2.063.126 4.106.326 6.157.532 2.048.211 4.086.478 6.135.718 2.037.287 4.078.552 6.111.87 2.035.32 4.067.648 6.091 1.054-2.061-.124-4.108-.323-6.157-.533-2.05-.211-4.088-.478-6.133-.717-2.041-.29-4.082-.551-6.113-.871-2.034-.318-4.066-.648-6.091-1.053zM210.057 244.233c4.854.487 9.695 1.046 14.533 1.622l14.506 1.798 14.486 1.954c4.824.684 9.647 1.369 14.461 2.139-4.848-.484-9.689-1.045-14.527-1.617l-14.51-1.802-14.484-1.955c-4.821-.68-9.647-1.372-14.465-2.139zM209.52 248.407c4.85.487 9.688 1.05 14.531 1.622l14.505 1.798 14.487 1.956c4.825.683 9.648 1.37 14.459 2.136-4.848-.481-9.689-1.044-14.528-1.613l-14.506-1.801-14.485-1.959c-4.825-.68-9.651-1.372-14.463-2.139zM208.977 252.583c4.855.488 9.693 1.049 14.531 1.622l14.506 1.797 14.486 1.956c4.825.678 9.646 1.372 14.461 2.138-4.85-.485-9.688-1.046-14.528-1.618l-14.507-1.8-14.483-1.957c-4.828-.68-9.65-1.372-14.466-2.138zM208.434 256.758c2.062.126 4.111.322 6.16.535 2.049.21 4.091.479 6.135.713 2.035.291 4.078.555 6.115.873 2.033.317 4.065.649 6.09 1.053-2.062-.126-4.11-.322-6.159-.532-2.048-.211-4.09-.479-6.135-.716-2.038-.292-4.081-.551-6.11-.872-2.038-.322-4.073-.65-6.096-1.054zM206.682 270.322c4.848.486 9.689 1.05 14.529 1.617l14.508 1.799 14.482 1.96c4.824.679 9.65 1.372 14.463 2.139-4.849-.489-9.689-1.048-14.53-1.62l-14.504-1.804-14.486-1.952c-4.829-.682-9.65-1.375-14.462-2.139zM206.138 274.496c4.85.486 9.693 1.049 14.531 1.621l14.508 1.8 14.485 1.955c4.824.678 9.647 1.368 14.463 2.136-4.852-.485-9.689-1.044-14.531-1.617l-14.506-1.8-14.487-1.955c-4.828-.682-9.648-1.374-14.463-2.14zM205.6 278.667c4.848.489 9.688 1.054 14.526 1.625l14.511 1.798 14.482 1.953c4.826.685 9.648 1.375 14.465 2.144-4.85-.487-9.694-1.048-14.527-1.62l-14.508-1.798-14.488-1.959c-4.822-.679-9.648-1.372-14.461-2.143zM205.059 282.847c2.058.127 4.107.326 6.154.535 2.049.207 4.091.477 6.131.714 2.043.291 4.082.551 6.119.868 2.031.32 4.068.653 6.09 1.056-2.063-.124-4.109-.324-6.158-.533-2.05-.211-4.088-.477-6.135-.717-2.036-.291-4.078-.549-6.113-.872-2.032-.317-4.067-.647-6.088-1.051zM203.301 296.411c4.854.487 9.688 1.044 14.529 1.62l14.506 1.795 14.487 1.957c4.825.68 9.647 1.372 14.461 2.14-4.852-.486-9.691-1.047-14.53-1.619l-14.506-1.8-14.484-1.955c-4.825-.685-9.648-1.373-14.463-2.138zM202.76 300.584c4.852.487 9.688 1.048 14.529 1.62l14.506 1.798 14.487 1.956c4.825.683 9.649 1.372 14.46 2.14-4.852-.486-9.688-1.047-14.528-1.617l-14.507-1.802-14.484-1.956c-4.828-.681-9.649-1.37-14.463-2.139zM202.219 304.762c4.848.484 9.691 1.045 14.527 1.618l14.51 1.797 14.486 1.956c4.824.68 9.648 1.372 14.459 2.142-4.847-.485-9.689-1.052-14.527-1.62l-14.506-1.8-14.49-1.956c-4.824-.683-9.647-1.376-14.459-2.137zM201.677 308.934c2.06.123 4.112.325 6.161.533 2.043.211 4.086.48 6.131.714 2.039.291 4.08.557 6.115.873 2.031.318 4.063.651 6.09 1.052-2.062-.121-4.111-.319-6.16-.53-2.047-.209-4.088-.479-6.132-.716-2.036-.292-4.08-.554-6.114-.869-2.034-.323-4.071-.653-6.091-1.057z"/>
  <path fill="#f9c529" d="m201.961 215.603-1.535 13.194-1.608 13.186-3.33 26.359-.291 1.611-1.806 13.159-1.883 13.154 1.535-13.202 1.609-13.181.125-1.63 3.494-26.339 1.809-13.162 1.881-13.149z"/>
  <path fill="#f9c529" d="M203.184 216.818a1.366 1.366 0 0 1-1.535 1.179 1.369 1.369 0 1 1 1.535-1.179zM199.805 242.904a1.369 1.369 0 1 1-2.717-.351 1.37 1.37 0 0 1 2.717.351zM196.424 268.991a1.366 1.366 0 0 1-1.533 1.185 1.372 1.372 0 0 1-1.186-1.535 1.376 1.376 0 0 1 1.535-1.183 1.368 1.368 0 0 1 1.184 1.533zM193.045 295.083a1.376 1.376 0 0 1-1.537 1.183 1.38 1.38 0 0 1-1.183-1.537 1.375 1.375 0 0 1 1.538-1.181 1.37 1.37 0 0 1 1.182 1.535z"/>
  <path fill="#36565f" d="M49.619 279.009c-.721 5.556-5.81 9.474-11.363 8.757-5.555-.725-9.475-5.81-8.756-11.365.717-5.556 5.809-9.475 11.363-8.755a10.138 10.138 0 0 1 8.072 6.191c.657 1.579.919 3.351.684 5.172z"/>
  <path fill="#f9c529" d="m48.936 273.837-9.38 3.868 1.308-10.06a10.143 10.143 0 0 1 8.072 6.192z"/>
  <path fill="#fff" d="M46.516 278.605a7.016 7.016 0 0 1-13.915-1.804 7.024 7.024 0 0 1 7.858-6.056 7.02 7.02 0 0 1 6.057 7.86z"/>
  <path fill="#00292f" d="m42.549 277.352-5.791-.754.104-.815 5.794.752-.107.817z"/>
  <path fill="#a6a4a4" d="m43.688 279.809-8.663-1.121.111-.818 8.66 1.123-.108.816z"/>
  <path fill="#36565f" d="M77.765 282.653a9.657 9.657 0 0 1-.302 1.456 10.138 10.138 0 0 1-11.063 7.299c-5.555-.721-9.473-5.805-8.754-11.36.719-5.554 5.808-9.476 11.363-8.755a10.132 10.132 0 0 1 8.073 6.186c.655 1.584.917 3.356.683 5.174z"/>
  <path fill="#f9c529" d="M77.765 282.653a9.657 9.657 0 0 1-.302 1.456l-9.758-2.757 1.305-10.06a10.132 10.132 0 0 1 8.755 11.361z"/>
  <path fill="#fff" d="M74.66 282.253a7.015 7.015 0 0 1-7.857 6.056 7.02 7.02 0 0 1-6.053-7.861 7.014 7.014 0 1 1 13.91 1.805z"/>
  <path fill="#00292f" d="m70.691 280.999-5.788-.754.109-.816 5.789.75-.11.82z"/>
  <path fill="#a6a4a4" d="m71.833 283.457-8.659-1.123.105-.816 8.662 1.121-.108.818z"/>
  <path fill="#36565f" d="M106.104 286.326c-.557 4.282-3.709 7.594-7.675 8.557a10.162 10.162 0 0 1-3.685.198c-5.557-.722-9.479-5.807-8.76-11.363.721-5.554 5.811-9.474 11.363-8.755a10.14 10.14 0 0 1 8.757 11.363z"/>
  <path fill="#f9c529" d="M106.104 286.326c-.557 4.282-3.709 7.594-7.675 8.557l-2.384-9.861 1.303-10.059a10.14 10.14 0 0 1 8.756 11.363z"/>
  <path fill="#fff" d="M103.003 285.924a7.017 7.017 0 0 1-7.861 6.053 7.01 7.01 0 0 1-6.054-7.854 7.016 7.016 0 0 1 13.915 1.801z"/>
  <path fill="#00292f" d="m99.033 284.669-5.791-.751.107-.82 5.791.754-.107.817z"/>
  <path fill="#a6a4a4" d="m100.176 287.126-8.66-1.121.105-.816 8.658 1.121-.103.816z"/>
  <path fill="#36565f" d="M134.287 289.977a10.058 10.058 0 0 1-2.548 5.517 10.138 10.138 0 0 1-8.811 3.239 10.096 10.096 0 0 1-6.218-3.254 10.105 10.105 0 0 1-2.538-8.106c.719-5.555 5.804-9.476 11.359-8.759 3.733.484 6.726 2.94 8.076 6.189.653 1.581.918 3.356.68 5.174z"/>
  <path fill="#f9c529" d="M134.287 289.977a10.058 10.058 0 0 1-2.548 5.517 10.138 10.138 0 0 1-8.811 3.239 10.096 10.096 0 0 1-6.218-3.254l7.517-6.803 1.305-10.063c3.733.484 6.726 2.94 8.076 6.189.652 1.582.917 3.357.679 5.175z"/>
  <path fill="#fff" d="M131.186 289.574a7.017 7.017 0 0 1-7.859 6.055 7.006 7.006 0 0 1-6.05-7.856 7.008 7.008 0 0 1 7.853-6.056 7.013 7.013 0 0 1 6.056 7.857z"/>
  <path fill="#00292f" d="m127.221 288.321-5.793-.752.104-.816 5.794.75-.105.818z"/>
  <path fill="#a6a4a4" d="m128.357 290.776-8.658-1.118.106-.818 8.662 1.118-.11.818z"/>
  <path fill="#36565f" d="m155.504 196.801-1.617 13.778-1.688 13.769-3.482 27.521-3.645 27.506-1.874 13.745-1.951 13.734 1.618-13.778 1.686-13.768 3.488-27.527 3.644-27.5 1.878-13.746 1.943-13.734z"/>
  <path fill="#f9c529" d="M29.869 322.271a.89.89 0 0 1-.47.162l-.218.017-.381-.05-.371-.115a3.9 3.9 0 0 1-1.306-.788 9.064 9.064 0 0 1-2.152-2.801c-.221-.456-.381-.935-.422-1.443l-.013-.4.046-.368.133-.34.199-.297.052.06c.455.589.909 1.178 1.363 1.769l.011.104a.772.772 0 0 0 .07.779 15.99 15.99 0 0 0 1.23 1.592c.197.226.443.308.739.268l.085.024c.459.601.92 1.2 1.381 1.797l.024.03zM30.904 321.479l-.623.479-.045.032c-.467-.604-.934-1.204-1.398-1.812l.139-.095c.179-.135.354-.272.533-.408.152-.121.289-.102.406.05.349.452.697.903 1.037 1.353.118.151.1.283-.049.401zM27.363 316.857c-.229.174-.462.342-.693.505-.445-.577-.911-1.175-1.373-1.78l.033-.032c.213-.164.426-.324.637-.488.141-.108.277-.094.389.048l1.052 1.367-.045.38zM29.516 330.48l-.194.142a997.35 997.35 0 0 0-3.001 2.198c-.228.166-.438.139-.613-.077-.801-.985-1.608-1.967-2.407-2.948l-.099-.12.249-.031c.618.076 1.238.153 1.86.233l3.875.487.33.116z"/>
  <path fill="#f9c529" d="m28.893 335.217-.238.013c-.739-.09-1.479-.185-2.217-.279-1.191-.149-2.382-.301-3.575-.448l-.278-.109 2.492-1.824c.125.156.251.305.373.457l.16.195a.483.483 0 0 0 .683.091l.665-.493 1.941 2.371-.006.026zM24.834 332.276c-.805.604-1.625 1.19-2.427 1.8l-.001-.104c.159-1.306.324-2.61.49-3.915l.028-.12c.637.778 1.269 1.557 1.91 2.339zM29.17 334.932c-.236-.293-.474-.584-.711-.877-.385-.472-.768-.938-1.153-1.405l-.046-.052c.813-.608 1.635-1.194 2.429-1.803l-.519 4.137zM138.025 331.222a5.128 5.128 0 0 0-.539 1.504l-.02-.002c-.445-.055-.887-.113-1.336-.171l-.014-.003v-.039l.028-.103c.041-.182.093-.356.162-.532.108-.28.249-.55.415-.801l.033-.017c.416.053.832.104 1.248.16l.023.004zM137.539 334.677l-.023-.003c-.41-.054-.825-.106-1.238-.161l-.029-.024a4.192 4.192 0 0 1-.191-.994 3.601 3.601 0 0 1 .005-.487l-.001-.02.004-.036h.023c.44.061.883.113 1.324.176l.024.023-.02.336c-.005.178 0 .353.017.526.021.218.052.431.099.644l.006.02zM142.788 335.764l-.017.018a3.545 3.545 0 0 1-.416.415 3.541 3.541 0 0 1-.582.414 3.695 3.695 0 0 1-1.308.456 4.611 4.611 0 0 1-.537.045l-.054.002-.034-.004-.024-.021.036-.02a4.046 4.046 0 0 0 1.117-.836c.184-.195.351-.399.496-.621l.031-.016c.426.052.845.109 1.266.166l.026.002zM141.828 333.287l-1.775-.23.201-1.546h.021c.454.063.91.118 1.364.178l.022.022a4.25 4.25 0 0 1 .168 1.444l-.001.132zM141.764 333.699l-.021.111-.059.252-.105.346a4.06 4.06 0 0 1-.33.727l-.032.019c-.463-.058-.931-.123-1.394-.183l-.023-.004.194-1.497 1.77.229zM139.854 331.467l-.201 1.552-1.729-.225.023-.112.065-.258.122-.382a3.96 3.96 0 0 1 .349-.731l.028-.015c.444.055.88.113 1.325.168l.018.003zM139.602 333.439l-.188 1.459-.006.021-.02-.005c-.457-.055-.907-.115-1.359-.173l-.029-.025a4.041 4.041 0 0 1-.135-.811l-.008-.422.014-.28.003-.01.021.006c.564.07 1.127.143 1.688.215l.019.025zM143.7 333.545l-1.447-.191a5.19 5.19 0 0 0-.136-1.603l.02.006c.442.057.891.111 1.328.171l.032.021c.116.329.186.667.206 1.014.018.184.012.369-.002.551l-.001.031zM143.65 333.933l-.015.104-.1.383c-.091.294-.22.571-.377.836l-.081.125-.025.008c-.441-.057-.887-.112-1.334-.168l-.014-.003.068-.13c.107-.224.198-.453.271-.684.055-.172.099-.345.129-.521l.021-.122.016-.015.016.003 1.425.184zM143.298 331.504v.002l-.021.001c-.423-.055-.847-.11-1.271-.167l-.024-.021a4.522 4.522 0 0 0-.511-1.013 3.434 3.434 0 0 0-.428-.509l-.235-.229-.017-.013.021-.012-.006-.026c.444.111.855.295 1.23.552.543.372.97.843 1.262 1.435zM138.894 336.969h-.038l-.4-.135a3.517 3.517 0 0 1-.702-.365 3.848 3.848 0 0 1-.687-.592 3.168 3.168 0 0 1-.393-.508 3.452 3.452 0 0 1-.232-.426l-.006-.014.02.001c.397.05.791.105 1.184.151l.028.025c.095.265.202.519.34.765.132.221.276.43.439.628.133.162.278.316.437.457l.01.013zM139.854 329.434l-.195.109a4.807 4.807 0 0 0-.644.456 3.99 3.99 0 0 0-.71.781l-.039.057-.018.007-.064-.01-1.156-.146c.762-.824 1.697-1.26 2.816-1.285l-.012.011.022.02zM140.996 335.532c-.2.269-.428.506-.684.716a3.695 3.695 0 0 1-.744.477l.177-1.357 1.251.164zM139.358 335.318l-.174 1.332a3.877 3.877 0 0 1-1.03-1.484l1.204.152zM141.512 331.264l-1.203-.153.165-1.268c.225.192.427.409.602.651.171.24.313.498.436.77zM140.066 329.83l-.16 1.24-1.154-.151a3.664 3.664 0 0 1 1.314-1.089zM140.223 346.055c-.171 1.093-1.199 1.817-2.324 1.639-1.037-.17-1.775-1.189-1.618-2.216.187-1.143 1.186-1.86 2.34-1.672 1.024.168 1.767 1.208 1.602 2.249zm1.121-1.054c-.451-1.467-1.951-2.399-3.535-2.214-1.349.151-2.697 1.197-2.768 2.912-.02.499.091.986.242 1.459.334 1.039.863 1.981 1.48 2.879.249.361.518.713.783 1.075l.107-.075c.45-.369.913-.728 1.344-1.116.804-.725 1.518-1.522 2.035-2.484.415-.775.57-1.582.312-2.436z"/>
  <path fill="#a6a4a4" d="M38.617 317.794c4.852.485 9.693 1.049 14.533 1.62l14.503 1.8 14.487 1.954c4.824.68 9.648 1.37 14.461 2.138-4.849-.484-9.688-1.047-14.526-1.617l-14.509-1.8-14.486-1.957c-4.822-.678-9.648-1.371-14.463-2.138zM38.078 321.972c2.434.169 4.857.419 7.281.676 2.424.259 4.84.578 7.258.863 2.415.338 4.828.649 7.238 1.015 2.409.367 4.817.747 7.215 1.2-2.436-.172-4.86-.42-7.283-.679-2.418-.261-4.834-.574-7.256-.862-2.414-.343-4.83-.648-7.241-1.018-2.409-.368-4.816-.745-7.212-1.195zM36.82 331.699c4.847.485 9.686 1.046 14.527 1.62l14.506 1.797 14.486 1.959c4.826.677 9.65 1.367 14.462 2.136-4.847-.485-9.692-1.05-14.532-1.617l-14.504-1.801-14.484-1.955c-4.825-.682-9.652-1.375-14.461-2.139zM36.274 335.874c2.438.174 4.858.421 7.284.68 2.42.255 4.839.575 7.259.858 2.415.342 4.829.648 7.239 1.02 2.404.366 4.816.742 7.214 1.197-2.435-.173-4.858-.421-7.283-.678-2.423-.259-4.841-.575-7.259-.864-2.411-.34-4.83-.646-7.236-1.015-2.41-.368-4.82-.744-7.218-1.198zM154.262 332.778c4.848.485 9.689 1.043 14.53 1.616l14.507 1.801 14.486 1.955c4.822.679 9.646 1.371 14.457 2.139-4.848-.486-9.688-1.047-14.527-1.618l-14.506-1.803-14.485-1.955c-4.826-.683-9.652-1.371-14.462-2.135zM153.719 336.953c2.436.169 4.859.419 7.283.679 2.421.255 4.837.574 7.258.858 2.412.34 4.828.65 7.236 1.016 2.41.37 4.818.747 7.219 1.201-2.434-.173-4.861-.421-7.287-.679-2.42-.259-4.834-.577-7.258-.858-2.408-.344-4.828-.653-7.234-1.02-2.41-.37-4.819-.746-7.217-1.197zM152.457 346.678c4.852.488 9.692 1.049 14.535 1.621l14.503 1.801 14.484 1.956c4.827.679 9.649 1.368 14.466 2.139-4.849-.487-9.693-1.046-14.533-1.622l-14.503-1.799-14.487-1.955c-4.828-.683-9.647-1.373-14.465-2.141zM151.92 350.855c2.428.171 4.855.42 7.281.68 2.424.256 4.838.576 7.257.859 2.415.341 4.829.65 7.238 1.017 2.409.368 4.815.747 7.213 1.201-2.435-.173-4.858-.424-7.28-.679-2.426-.259-4.841-.577-7.258-.862-2.412-.341-4.829-.647-7.237-1.016-2.407-.369-4.82-.748-7.214-1.2z"/>
</svg>
