<?xml version="1.0" encoding="utf-8"?>
<!-- Generator: Adobe Illustrator 16.0.0, SVG Export Plug-In . SVG Version: 6.00 Build 0)  -->
<!DOCTYPE svg PUBLIC "-//W3C//DTD SVG 1.1//EN" "http://www.w3.org/Graphics/SVG/1.1/DTD/svg11.dtd" [
	<!ENTITY st0 "clip-path:url(#SVGID_8_);fill:#F6F7F5;">
	<!ENTITY st1 "fill:#48575C;">
	<!ENTITY st2 "fill:#7D252A;">
	<!ENTITY st3 "fill:#7E523F;">
	<!ENTITY st4 "fill:#7FA7C6;">
	<!ENTITY st5 "fill:#AF4141;">
	<!ENTITY st6 "fill:#E0E3E2;">
	<!ENTITY st7 "fill:#E1877F;">
	<!ENTITY st8 "fill:#E194B4;">
	<!ENTITY st9 "fill:#E1E1E1;">
	<!ENTITY st10 "fill:#E2916A;">
	<!ENTITY st11 "fill:#E29BA1;">
	<!ENTITY st12 "fill:#E5946F;">
	<!ENTITY st13 "clip-path:url(#SVGID_26_);fill:#D76163;">
	<!ENTITY st14 "fill:#E69C77;">
	<!ENTITY st15 "fill:#182E34;">
	<!ENTITY st16 "fill:#E6E8E6;">
	<!ENTITY st17 "fill:#E7A09B;">
	<!ENTITY st18 "fill:#E7A47D;">
	<!ENTITY st19 "fill:#19393F;">
	<!ENTITY st20 "fill:#E87A69;">
	<!ENTITY st21 "fill:#E8A681;">
	<!ENTITY st22 "fill:#E8B100;">
	<!ENTITY st23 "clip-path:url(#SVGID_12_);fill:#E1E1E1;">
	<!ENTITY st24 "fill:#B2B2B2;">
	<!ENTITY st25 "fill:#B2BEC4;">
	<!ENTITY st26 "clip-path:url(#SVGID_28_);fill:#00292F;">
	<!ENTITY st27 "fill:#B4B4B4;">
	<!ENTITY st28 "fill:#B7B8B8;">
	<!ENTITY st29 "fill:#B87761;">
	<!ENTITY st30 "fill:#1E120D;">
	<!ENTITY st31 "fill:#ECB49A;">
	<!ENTITY st32 "fill:#ECB5BD;">
	<!ENTITY st33 "clip-path:url(#SVGID_4_);fill:#DCDDDC;">
	<!ENTITY st34 "fill:#ECECEB;">
	<!ENTITY st35 "fill:#ECEEED;">
	<!ENTITY st36 "fill:#ED9890;">
	<!ENTITY st37 "fill:#EE9972;">
	<!ENTITY st38 "fill:#EEEEEB;">
	<!ENTITY st39 "fill:#EEEFEC;">
	<!ENTITY st40 "clip-path:url(#SVGID_28_);fill:#D76163;">
	<!ENTITY st41 "clip-path:url(#SVGID_16_);fill:#41032E;">
	<!ENTITY st42 "fill:#BB7464;">
	<!ENTITY st43 "clip-path:url(#SVGID_10_);fill:#F6F7F5;">
	<!ENTITY st44 "fill:#8E4747;">
	<!ENTITY st45 "clip-path:url(#SVGID_32_);fill:#F6D1BE;">
	<!ENTITY st46 "clip-path:url(#SVGID_22_);fill:#8FC7E3;">
	<!ENTITY st47 "fill:#8FC7E3;">
	<!ENTITY st48 "fill:#214248;">
	<!ENTITY st49 "fill:#F0C655;">
	<!ENTITY st50 "fill:#F0F0EF;">
	<!ENTITY st51 "fill:#F1AD93;">
	<!ENTITY st52 "fill:#F1C95A;">
	<!ENTITY st53 "fill:#F3B79C;">
	<!ENTITY st54 "fill:#F3C0C0;">
	<!ENTITY st55 "fill:#F3F4F3;">
	<!ENTITY st56 "fill:#F4F4F4;">
	<!ENTITY st57 "fill:#F5DADD;">
	<!ENTITY st58 "fill:#F6D1BE;">
	<!ENTITY st59 "fill:#F6F6F5;">
	<!ENTITY st60 "fill:#F6F7F5;">
	<!ENTITY st61 "fill:#29444C;">
	<!ENTITY st62 "fill:#F8E3DF;">
	<!ENTITY st63 "fill:#F9C529;">
	<!ENTITY st64 "clip-path:url(#SVGID_2_);">
	<!ENTITY st65 "clip-path:url(#SVGID_18_);fill:#41032E;">
	<!ENTITY st66 "fill:#C25C43;">
	<!ENTITY st67 "clip-path:url(#SVGID_12_);fill:#F6F7F5;">
	<!ENTITY st68 "fill:#956154;">
	<!ENTITY st69 "clip-path:url(#SVGID_34_);fill:#F8F9F8;">
	<!ENTITY st70 "fill:#C7C8C9;">
	<!ENTITY st71 "fill:#FCFCFC;">
	<!ENTITY st72 "fill:#C9C8C8;">
	<!ENTITY st73 "opacity:0.2;">
	<!ENTITY st74 "fill:#60757C;">
	<!ENTITY st75 "clip-path:url(#SVGID_4_);fill:#EEEEEB;">
	<!ENTITY st76 "clip-path:url(#SVGID_24_);fill:#F6F7F5;">
	<!ENTITY st77 "fill:#FF6265;">
	<!ENTITY st78 "fill:#FFFFFF;">
	<!ENTITY st79 "fill:#62797F;">
	<!ENTITY st80 "clip-path:url(#SVGID_16_);fill:#ECB5BD;">
	<!ENTITY st81 "clip-path:url(#SVGID_30_);fill:#D76163;">
	<!ENTITY st82 "fill:#68649D;">
	<!ENTITY st83 "fill:#9C9A9A;">
	<!ENTITY st84 "fill:#CC5E44;">
	<!ENTITY st85 "fill:#CCA7A8;">
	<!ENTITY st86 "fill:#9E534E;">
	<!ENTITY st87 "fill:#CDCED0;">
	<!ENTITY st88 "clip-path:url(#SVGID_8_);fill:#E1E1E1;">
	<!ENTITY st89 "fill:#345962;">
	<!ENTITY st90 "fill:#36565F;">
	<!ENTITY st91 "clip-path:url(#SVGID_6_);fill:#EEEEEB;">
	<!ENTITY st92 "clip-path:url(#SVGID_24_);fill:#FFFFFF;">
	<!ENTITY st93 "fill:#6C6AA1;">
	<!ENTITY st94 "fill:#001016;">
	<!ENTITY st95 "fill:#001218;">
	<!ENTITY st96 "fill:#002126;">
	<!ENTITY st97 "fill:#00292F;">
	<!ENTITY st98 "fill:#010002;">
	<!ENTITY st99 "fill:#D19D00;">
	<!ENTITY st100 "clip-path:url(#SVGID_20_);fill:#41032E;">
	<!ENTITY st101 "clip-path:url(#SVGID_30_);fill:#7D252A;">
	<!ENTITY st102 "fill:#D76163;">
	<!ENTITY st103 "fill:#D7886E;">
	<!ENTITY st104 "fill:#D9684E;">
	<!ENTITY st105 "clip-path:url(#SVGID_30_);fill:#E5946F;">
	<!ENTITY st106 "fill:#7479AC;">
	<!ENTITY st107 "fill:#A46A55;">
	<!ENTITY st108 "fill:#754533;">
	<!ENTITY st109 "fill:#A4A1A1;">
	<!ENTITY st110 "fill:#A4A2A2;">
	<!ENTITY st111 "fill:#DA8D78;">
	<!ENTITY st112 "fill:#A6A4A4;">
	<!ENTITY st113 "fill:#A8AEB0;">
	<!ENTITY st114 "fill:#DCD2D8;">
	<!ENTITY st115 "fill:#DCDDDC;">
	<!ENTITY st116 "fill:#DD7665;">
	<!ENTITY st117 "fill:#DD787D;">
	<!ENTITY st118 "clip-path:url(#SVGID_22_);fill:#41032E;">
	<!ENTITY st119 "fill:#DE7E6C;">
	<!ENTITY st120 "fill:#41032E;">
	<!ENTITY st121 "fill:#DF7F73;">
	<!ENTITY st122 "fill:#DFBAB9;">
	<!ENTITY st123 "fill:#DFE0E0;">
	<!ENTITY st124 "clip-path:url(#SVGID_20_);fill:#E7A47D;">
	<!ENTITY st125 "fill:#445355;">
	<!ENTITY st126 "clip-path:url(#SVGID_32_);fill:#E0E3E2;">
	<!ENTITY st127 "clip-path:url(#SVGID_10_);fill:#E1E1E1;">
	<!ENTITY st128 "clip-path:url(#SVGID_26_);fill:#36565F;">
]>
<svg version="1.1" id="Layer_1" xmlns="http://www.w3.org/2000/svg" xmlns:xlink="http://www.w3.org/1999/xlink" x="0px" y="0px"
	 viewBox="0 0 338.672 166.376" style="enable-background:new 0 0 338.672 166.376;"
	 xml:space="preserve">
<g>
	<g>
		<g>
			<path style="&st98;" d="M10.863,100.648c-1.724,0-3.23-0.411-4.522-1.235c-1.292-0.823-2.29-1.985-2.992-3.483
				s-1.053-3.248-1.053-5.252s0.351-3.75,1.053-5.239s1.7-2.646,2.992-3.47c1.292-0.823,2.799-1.235,4.522-1.235
				c1.798,0,3.352,0.444,4.663,1.334c1.311,0.89,2.266,2.112,2.864,3.666l-0.505,0.196c-0.544-1.385-1.409-2.504-2.599-3.356
				s-2.664-1.278-4.424-1.278c-1.63,0-3.044,0.385-4.242,1.152s-2.125,1.854-2.78,3.258c-0.656,1.404-0.983,3.063-0.983,4.973
				s0.327,3.572,0.983,4.985c0.655,1.414,1.582,2.505,2.78,3.272s2.612,1.152,4.242,1.152c1.76,0,3.234-0.426,4.424-1.279
				c1.189-0.852,2.055-1.971,2.599-3.356l0.505,0.196c-0.599,1.555-1.559,2.777-2.879,3.666
				C14.191,100.205,12.642,100.648,10.863,100.648z"/>
			<path style="&st98;" d="M32.998,100.648c-1.724,0-3.23-0.411-4.522-1.235c-1.292-0.823-2.289-1.98-2.991-3.47
				c-0.703-1.488-1.054-3.234-1.054-5.238s0.351-3.754,1.054-5.253c0.702-1.497,1.699-2.659,2.991-3.483
				c1.292-0.823,2.799-1.235,4.522-1.235c1.741,0,3.254,0.412,4.536,1.235c1.282,0.824,2.28,1.986,2.992,3.483
				c0.711,1.499,1.067,3.249,1.067,5.253s-0.352,3.75-1.054,5.238c-0.702,1.489-1.699,2.646-2.991,3.47
				C36.256,100.237,34.739,100.648,32.998,100.648z M32.998,100.088c1.647,0,3.071-0.385,4.27-1.152s2.125-1.854,2.781-3.258
				c0.655-1.405,0.982-3.063,0.982-4.973c0-1.928-0.327-3.596-0.982-5c-0.656-1.404-1.583-2.49-2.781-3.258s-2.622-1.152-4.27-1.152
				c-1.629,0-3.043,0.385-4.242,1.152c-1.198,0.768-2.125,1.854-2.78,3.258c-0.656,1.404-0.983,3.072-0.983,5
				c0,1.91,0.327,3.567,0.983,4.973c0.655,1.404,1.582,2.49,2.78,3.258C29.955,99.703,31.369,100.088,32.998,100.088z"/>
			<path style="&st98;" d="M49.037,100.48V80.902h0.927l7.781,17.556h-0.169l7.781-17.556h0.898v19.578h-0.562V81.52h-0.028
				l-7.725,17.416h-0.59L49.627,81.52h-0.028v18.961H49.037z"/>
			<path style="&st98;" d="M82.268,100.648c-1.724,0-3.23-0.411-4.522-1.235c-1.292-0.823-2.29-1.98-2.992-3.47
				c-0.702-1.488-1.053-3.234-1.053-5.238s0.351-3.754,1.053-5.253c0.702-1.497,1.7-2.659,2.992-3.483
				c1.292-0.823,2.799-1.235,4.522-1.235c1.741,0,3.253,0.412,4.536,1.235c1.282,0.824,2.279,1.986,2.991,3.483
				c0.712,1.499,1.067,3.249,1.067,5.253s-0.351,3.75-1.053,5.238c-0.702,1.489-1.7,2.646-2.992,3.47
				C85.525,100.237,84.009,100.648,82.268,100.648z M82.268,100.088c1.647,0,3.07-0.385,4.27-1.152
				c1.198-0.768,2.125-1.854,2.78-3.258c0.655-1.405,0.983-3.063,0.983-4.973c0-1.928-0.328-3.596-0.983-5s-1.582-2.49-2.78-3.258
				c-1.199-0.768-2.622-1.152-4.27-1.152c-1.63,0-3.044,0.385-4.242,1.152s-2.125,1.854-2.78,3.258
				c-0.656,1.404-0.983,3.072-0.983,5c0,1.91,0.327,3.567,0.983,4.973c0.655,1.404,1.582,2.49,2.78,3.258
				S80.638,100.088,82.268,100.088z"/>
		</g>
	</g>
	<rect x="105.16" y="73.717" style="&st120;" width="229.588" height="89.867"/>
	<g>
		<path style="&st30;" d="M5.104,55.916c-1.87-2.028-2.806-4.891-2.806-8.587V21.906c0-3.695,0.936-6.559,2.806-8.587
			s4.587-3.042,8.147-3.042s6.277,1.014,8.148,3.042c1.869,2.028,2.806,4.892,2.806,8.587v5.004h-7.032v-5.477
			c0-2.93-1.24-4.396-3.719-4.396c-2.479,0-3.719,1.466-3.719,4.396V47.87c0,2.886,1.239,4.327,3.719,4.327
			c2.479,0,3.719-1.441,3.719-4.327v-7.235h7.032v6.694c0,3.696-0.937,6.559-2.806,8.587c-1.871,2.029-4.588,3.043-8.148,3.043
			S6.975,57.945,5.104,55.916z"/>
		<path style="&st30;" d="M31.913,55.849c-1.938-2.073-2.907-5.003-2.907-8.79V22.177c0-3.786,0.969-6.716,2.907-8.79
			c1.938-2.072,4.733-3.109,8.385-3.109s6.445,1.037,8.384,3.109c1.938,2.074,2.907,5.004,2.907,8.79v24.882
			c0,3.787-0.97,6.717-2.907,8.79c-1.938,2.073-4.732,3.11-8.384,3.11S33.852,57.922,31.913,55.849z M40.974,0h8.114l-7.235,7.775
			H36.24L40.974,0z M44.151,47.532V21.703c0-3.109-1.284-4.665-3.854-4.665s-3.854,1.556-3.854,4.665v25.829
			c0,3.11,1.285,4.665,3.854,4.665S44.151,50.643,44.151,47.532z"/>
		<path style="&st30;" d="M57.336,10.953h11.359c3.695,0,6.468,0.992,8.316,2.975c1.848,1.984,2.772,4.892,2.772,8.723v23.936
			c0,3.832-0.925,6.738-2.772,8.722c-1.849,1.983-4.621,2.976-8.316,2.976H57.336V10.953z M68.56,51.521
			c1.218,0,2.152-0.36,2.807-1.082c0.652-0.721,0.98-1.893,0.98-3.516V22.313c0-1.623-0.328-2.795-0.98-3.517
			c-0.654-0.72-1.589-1.081-2.807-1.081h-3.786v33.807H68.56z"/>
		<path style="&st30;" d="M85.53,10.953h7.438v47.33H85.53V10.953z"/>
		<path style="&st30;" d="M101.554,55.883c-1.893-2.051-2.839-4.992-2.839-8.824V22.177c0-3.831,0.946-6.772,2.839-8.823
			c1.894-2.051,4.643-3.076,8.249-3.076s6.356,1.025,8.249,3.076c1.894,2.051,2.84,4.992,2.84,8.823v4.057h-7.032v-4.53
			c0-3.109-1.284-4.665-3.854-4.665s-3.854,1.556-3.854,4.665V47.6c0,3.066,1.284,4.598,3.854,4.598s3.854-1.531,3.854-4.598v-9.264
			h-3.719v-6.761h10.751v15.483c0,3.832-0.946,6.773-2.84,8.824c-1.893,2.051-4.643,3.076-8.249,3.076
			S103.447,57.934,101.554,55.883z"/>
		<path style="&st30;" d="M128.802,55.849c-1.938-2.073-2.907-5.003-2.907-8.79V22.177c0-3.786,0.969-6.716,2.907-8.79
			c1.938-2.072,4.733-3.109,8.385-3.109c3.65,0,6.445,1.037,8.384,3.109c1.938,2.074,2.907,5.004,2.907,8.79v24.882
			c0,3.787-0.97,6.717-2.907,8.79c-1.938,2.073-4.733,3.11-8.384,3.11C133.535,58.959,130.739,57.922,128.802,55.849z
			 M141.04,47.532V21.703c0-3.109-1.284-4.665-3.854-4.665s-3.854,1.556-3.854,4.665v25.829c0,3.11,1.285,4.665,3.854,4.665
			S141.04,50.643,141.04,47.532z"/>
		<path style="&st30;" d="M171.533,10.953h10.074l7.708,47.33h-7.438l-1.353-9.398v0.135h-8.451l-1.353,9.264h-6.896L171.533,10.953
			z M179.646,42.596l-3.313-23.395h-0.136l-3.245,23.395H179.646z"/>
		<path style="&st30;" d="M193.642,10.953h11.224c3.831,0,6.627,0.891,8.385,2.67c1.758,1.781,2.637,4.52,2.637,8.216v1.894
			c0,2.434-0.395,4.418-1.184,5.949c-0.789,1.533-1.994,2.637-3.617,3.313v0.136c3.696,1.262,5.545,4.553,5.545,9.871v4.057
			c0,3.651-0.959,6.436-2.874,8.351c-1.916,1.917-4.723,2.874-8.418,2.874h-11.697V10.953z M203.986,30.223
			c1.488,0,2.604-0.383,3.348-1.149c0.743-0.766,1.115-2.05,1.115-3.854v-2.637c0-1.712-0.305-2.951-0.913-3.719
			c-0.608-0.766-1.566-1.148-2.873-1.148h-3.584v12.508H203.986z M205.339,51.521c1.307,0,2.276-0.349,2.907-1.049
			c0.631-0.697,0.947-1.903,0.947-3.617v-4.124c0-2.163-0.372-3.661-1.116-4.497c-0.743-0.833-1.972-1.25-3.685-1.25h-3.313v14.537
			H205.339z"/>
		<path style="&st30;" d="M221.701,10.953h7.438v47.33h-7.438V10.953z"/>
		<path style="&st30;" d="M235.426,10.953h20.284v6.762h-12.847v12.508h10.21v6.762h-10.21v14.537h12.847v6.762h-20.284V10.953z"/>
		<path style="&st30;" d="M260.713,10.953h11.021c3.83,0,6.626,0.891,8.384,2.67c1.758,1.781,2.638,4.52,2.638,8.216v2.907
			c0,4.914-1.623,8.023-4.869,9.33v0.136c1.803,0.541,3.077,1.646,3.82,3.313c0.744,1.668,1.116,3.899,1.116,6.693v8.316
			c0,1.353,0.044,2.446,0.135,3.279c0.09,0.835,0.315,1.656,0.677,2.469h-7.573c-0.271-0.767-0.451-1.488-0.541-2.164
			c-0.091-0.676-0.135-1.893-0.135-3.651v-8.654c0-2.164-0.351-3.673-1.048-4.53c-0.7-0.855-1.905-1.285-3.618-1.285h-2.569v20.285
			h-7.438V10.953z M270.855,31.236c1.487,0,2.603-0.382,3.347-1.148c0.744-0.766,1.115-2.051,1.115-3.854v-3.651
			c0-1.712-0.304-2.951-0.912-3.719c-0.608-0.766-1.567-1.148-2.874-1.148h-3.381v13.521H270.855z"/>
		<path style="&st30;" d="M294.385,17.715h-7.775v-6.762h22.988v6.762h-7.775v40.568h-7.438V17.715z"/>
		<path style="&st30;" d="M316.021,55.849c-1.938-2.073-2.907-5.003-2.907-8.79V22.177c0-3.786,0.969-6.716,2.907-8.79
			c1.938-2.072,4.733-3.109,8.384-3.109c3.651,0,6.446,1.037,8.385,3.109c1.938,2.074,2.907,5.004,2.907,8.79v24.882
			c0,3.787-0.97,6.717-2.907,8.79c-1.938,2.073-4.733,3.11-8.385,3.11C320.755,58.959,317.959,57.922,316.021,55.849z
			 M328.26,47.532V21.703c0-3.109-1.285-4.665-3.854-4.665s-3.854,1.556-3.854,4.665v25.829c0,3.11,1.284,4.665,3.854,4.665
			S328.26,50.643,328.26,47.532z"/>
	</g>
	<g>
		<path style="&st78;" d="M124.521,146.493c-2.342-2.538-3.512-6.119-3.512-10.745v-31.813c0-4.624,1.17-8.207,3.512-10.744
			c2.34-2.539,5.738-3.809,10.194-3.809c4.455,0,7.854,1.27,10.195,3.809c2.34,2.537,3.512,6.12,3.512,10.744v6.262h-8.799v-6.854
			c0-3.666-1.553-5.5-4.654-5.5c-3.103,0-4.653,1.834-4.653,5.5v33.082c0,3.609,1.551,5.414,4.653,5.414
			c3.102,0,4.654-1.805,4.654-5.414v-9.054h8.799v8.376c0,4.626-1.172,8.207-3.512,10.745c-2.341,2.538-5.74,3.808-10.195,3.808
			C130.259,150.301,126.86,149.031,124.521,146.493z"/>
		<path style="&st78;" d="M162.128,90.229h12.606l9.645,59.226h-9.307l-1.691-11.761v0.169h-10.576l-1.692,11.592h-8.63
			L162.128,90.229z M172.281,129.826l-4.146-29.274h-0.169l-4.062,29.274H172.281z"/>
		<path style="&st78;" d="M189.793,90.229h13.283l5.923,42.388h0.169l5.923-42.388h13.283v59.226h-8.799v-44.842h-0.169
			l-6.77,44.842h-7.783l-6.769-44.842h-0.169v44.842h-8.123V90.229z"/>
		<path style="&st78;" d="M236.242,90.229h9.307v59.226h-9.307V90.229z"/>
		<path style="&st78;" d="M253.416,90.229h11.676l9.053,35.45h0.17v-35.45h8.291v59.226h-9.561l-11.168-43.234h-0.169v43.234h-8.292
			V90.229z"/>
		<path style="&st78;" d="M293.435,146.408c-2.426-2.594-3.639-6.26-3.639-10.998v-31.136c0-4.738,1.213-8.403,3.639-10.999
			c2.425-2.594,5.923-3.893,10.491-3.893s8.065,1.299,10.491,3.893c2.425,2.596,3.638,6.261,3.638,10.999v31.136
			c0,4.738-1.213,8.404-3.638,10.998c-2.426,2.596-5.923,3.893-10.491,3.893S295.859,149.004,293.435,146.408z M308.748,136.002
			v-32.32c0-3.892-1.607-5.838-4.822-5.838s-4.822,1.946-4.822,5.838v32.32c0,3.893,1.607,5.838,4.822,5.838
			S308.748,139.895,308.748,136.002z"/>
	</g>
</g>
</svg>
