<?xml version="1.0" encoding="utf-8"?>
<!-- Generator: Adobe Illustrator 16.0.0, SVG Export Plug-In . SVG Version: 6.00 Build 0)  -->
<!DOCTYPE svg PUBLIC "-//W3C//DTD SVG 1.1//EN" "http://www.w3.org/Graphics/SVG/1.1/DTD/svg11.dtd" [
	<!ENTITY st0 "clip-path:url(#SVGID_8_);fill:#F6F7F5;">
	<!ENTITY st1 "fill:#48575C;">
	<!ENTITY st2 "fill:#7D252A;">
	<!ENTITY st3 "fill:#7E523F;">
	<!ENTITY st4 "fill:#7FA7C6;">
	<!ENTITY st5 "fill:#AF4141;">
	<!ENTITY st6 "fill:#E0E3E2;">
	<!ENTITY st7 "fill:#E1877F;">
	<!ENTITY st8 "fill:#E194B4;">
	<!ENTITY st9 "fill:#E1E1E1;">
	<!ENTITY st10 "fill:#E2916A;">
	<!ENTITY st11 "fill:#E29BA1;">
	<!ENTITY st12 "fill:#E5946F;">
	<!ENTITY st13 "clip-path:url(#SVGID_26_);fill:#D76163;">
	<!ENTITY st14 "fill:#E69C77;">
	<!ENTITY st15 "fill:#182E34;">
	<!ENTITY st16 "fill:#E6E8E6;">
	<!ENTITY st17 "fill:#E7A09B;">
	<!ENTITY st18 "fill:#E7A47D;">
	<!ENTITY st19 "fill:#19393F;">
	<!ENTITY st20 "fill:#E87A69;">
	<!ENTITY st21 "fill:#E8A681;">
	<!ENTITY st22 "fill:#E8B100;">
	<!ENTITY st23 "clip-path:url(#SVGID_12_);fill:#E1E1E1;">
	<!ENTITY st24 "fill:#B2B2B2;">
	<!ENTITY st25 "fill:#B2BEC4;">
	<!ENTITY st26 "clip-path:url(#SVGID_28_);fill:#00292F;">
	<!ENTITY st27 "fill:#B4B4B4;">
	<!ENTITY st28 "fill:#B7B8B8;">
	<!ENTITY st29 "fill:#B87761;">
	<!ENTITY st30 "fill:#1E120D;">
	<!ENTITY st31 "fill:#ECB49A;">
	<!ENTITY st32 "fill:#ECB5BD;">
	<!ENTITY st33 "clip-path:url(#SVGID_4_);fill:#DCDDDC;">
	<!ENTITY st34 "fill:#ECECEB;">
	<!ENTITY st35 "fill:#ECEEED;">
	<!ENTITY st36 "fill:#ED9890;">
	<!ENTITY st37 "fill:#EE9972;">
	<!ENTITY st38 "fill:#EEEEEB;">
	<!ENTITY st39 "fill:#EEEFEC;">
	<!ENTITY st40 "clip-path:url(#SVGID_28_);fill:#D76163;">
	<!ENTITY st41 "clip-path:url(#SVGID_16_);fill:#41032E;">
	<!ENTITY st42 "fill:#BB7464;">
	<!ENTITY st43 "clip-path:url(#SVGID_10_);fill:#F6F7F5;">
	<!ENTITY st44 "fill:#8E4747;">
	<!ENTITY st45 "clip-path:url(#SVGID_32_);fill:#F6D1BE;">
	<!ENTITY st46 "clip-path:url(#SVGID_22_);fill:#8FC7E3;">
	<!ENTITY st47 "fill:#8FC7E3;">
	<!ENTITY st48 "fill:#214248;">
	<!ENTITY st49 "fill:#F0C655;">
	<!ENTITY st50 "fill:#F0F0EF;">
	<!ENTITY st51 "fill:#F1AD93;">
	<!ENTITY st52 "fill:#F1C95A;">
	<!ENTITY st53 "fill:#F3B79C;">
	<!ENTITY st54 "fill:#F3C0C0;">
	<!ENTITY st55 "fill:#F3F4F3;">
	<!ENTITY st56 "fill:#F4F4F4;">
	<!ENTITY st57 "fill:#F5DADD;">
	<!ENTITY st58 "fill:#F6D1BE;">
	<!ENTITY st59 "fill:#F6F6F5;">
	<!ENTITY st60 "fill:#F6F7F5;">
	<!ENTITY st61 "fill:#29444C;">
	<!ENTITY st62 "fill:#F8E3DF;">
	<!ENTITY st63 "fill:#F9C529;">
	<!ENTITY st64 "clip-path:url(#SVGID_2_);">
	<!ENTITY st65 "clip-path:url(#SVGID_18_);fill:#41032E;">
	<!ENTITY st66 "fill:#C25C43;">
	<!ENTITY st67 "clip-path:url(#SVGID_12_);fill:#F6F7F5;">
	<!ENTITY st68 "fill:#956154;">
	<!ENTITY st69 "clip-path:url(#SVGID_34_);fill:#F8F9F8;">
	<!ENTITY st70 "fill:#C7C8C9;">
	<!ENTITY st71 "fill:#FCFCFC;">
	<!ENTITY st72 "fill:#C9C8C8;">
	<!ENTITY st73 "opacity:0.2;">
	<!ENTITY st74 "fill:#60757C;">
	<!ENTITY st75 "clip-path:url(#SVGID_4_);fill:#EEEEEB;">
	<!ENTITY st76 "clip-path:url(#SVGID_24_);fill:#F6F7F5;">
	<!ENTITY st77 "fill:#FF6265;">
	<!ENTITY st78 "fill:#FFFFFF;">
	<!ENTITY st79 "fill:#62797F;">
	<!ENTITY st80 "clip-path:url(#SVGID_16_);fill:#ECB5BD;">
	<!ENTITY st81 "clip-path:url(#SVGID_30_);fill:#D76163;">
	<!ENTITY st82 "fill:#68649D;">
	<!ENTITY st83 "fill:#9C9A9A;">
	<!ENTITY st84 "fill:#CC5E44;">
	<!ENTITY st85 "fill:#CCA7A8;">
	<!ENTITY st86 "fill:#9E534E;">
	<!ENTITY st87 "fill:#CDCED0;">
	<!ENTITY st88 "clip-path:url(#SVGID_8_);fill:#E1E1E1;">
	<!ENTITY st89 "fill:#345962;">
	<!ENTITY st90 "fill:#36565F;">
	<!ENTITY st91 "clip-path:url(#SVGID_6_);fill:#EEEEEB;">
	<!ENTITY st92 "clip-path:url(#SVGID_24_);fill:#FFFFFF;">
	<!ENTITY st93 "fill:#6C6AA1;">
	<!ENTITY st94 "fill:#001016;">
	<!ENTITY st95 "fill:#001218;">
	<!ENTITY st96 "fill:#002126;">
	<!ENTITY st97 "fill:#00292F;">
	<!ENTITY st98 "fill:#010002;">
	<!ENTITY st99 "fill:#D19D00;">
	<!ENTITY st100 "clip-path:url(#SVGID_20_);fill:#41032E;">
	<!ENTITY st101 "clip-path:url(#SVGID_30_);fill:#7D252A;">
	<!ENTITY st102 "fill:#D76163;">
	<!ENTITY st103 "fill:#D7886E;">
	<!ENTITY st104 "fill:#D9684E;">
	<!ENTITY st105 "clip-path:url(#SVGID_30_);fill:#E5946F;">
	<!ENTITY st106 "fill:#7479AC;">
	<!ENTITY st107 "fill:#A46A55;">
	<!ENTITY st108 "fill:#754533;">
	<!ENTITY st109 "fill:#A4A1A1;">
	<!ENTITY st110 "fill:#A4A2A2;">
	<!ENTITY st111 "fill:#DA8D78;">
	<!ENTITY st112 "fill:#A6A4A4;">
	<!ENTITY st113 "fill:#A8AEB0;">
	<!ENTITY st114 "fill:#DCD2D8;">
	<!ENTITY st115 "fill:#DCDDDC;">
	<!ENTITY st116 "fill:#DD7665;">
	<!ENTITY st117 "fill:#DD787D;">
	<!ENTITY st118 "clip-path:url(#SVGID_22_);fill:#41032E;">
	<!ENTITY st119 "fill:#DE7E6C;">
	<!ENTITY st120 "fill:#41032E;">
	<!ENTITY st121 "fill:#DF7F73;">
	<!ENTITY st122 "fill:#DFBAB9;">
	<!ENTITY st123 "fill:#DFE0E0;">
	<!ENTITY st124 "clip-path:url(#SVGID_20_);fill:#E7A47D;">
	<!ENTITY st125 "fill:#445355;">
	<!ENTITY st126 "clip-path:url(#SVGID_32_);fill:#E0E3E2;">
	<!ENTITY st127 "clip-path:url(#SVGID_10_);fill:#E1E1E1;">
	<!ENTITY st128 "clip-path:url(#SVGID_26_);fill:#36565F;">
]>
<svg version="1.1" id="Layer_1" xmlns="http://www.w3.org/2000/svg" xmlns:xlink="http://www.w3.org/1999/xlink" x="0px" y="0px"
	  viewBox="0 0 321.572 197.143" style="enable-background:new 0 0 321.572 197.143;"
	 xml:space="preserve">
<g>
	<g>
		<g>
			<path style="&st98;" d="M12.093,94.627c-1.803,0-3.379-0.431-4.73-1.293c-1.351-0.861-2.394-2.075-3.128-3.643
				c-0.734-1.566-1.102-3.397-1.102-5.493c0-2.095,0.367-3.922,1.102-5.479c0.734-1.558,1.777-2.767,3.128-3.628
				c1.352-0.861,2.928-1.293,4.73-1.293c1.88,0,3.505,0.466,4.876,1.396c1.371,0.931,2.37,2.208,2.997,3.833l-0.529,0.207
				c-0.568-1.449-1.474-2.619-2.717-3.512c-1.244-0.891-2.787-1.336-4.627-1.336c-1.704,0-3.184,0.401-4.437,1.204
				c-1.253,0.804-2.223,1.938-2.908,3.407s-1.028,3.203-1.028,5.2s0.343,3.735,1.028,5.214c0.686,1.479,1.655,2.62,2.908,3.423
				c1.253,0.804,2.732,1.204,4.437,1.204c1.84,0,3.383-0.445,4.627-1.336c1.243-0.891,2.148-2.062,2.717-3.511l0.529,0.206
				c-0.627,1.625-1.631,2.903-3.012,3.833C15.573,94.162,13.953,94.627,12.093,94.627z"/>
			<path style="&st98;" d="M35.241,94.627c-1.802,0-3.378-0.431-4.729-1.293c-1.352-0.861-2.395-2.07-3.129-3.627
				c-0.734-1.558-1.102-3.383-1.102-5.479c0-2.095,0.367-3.927,1.102-5.493s1.777-2.781,3.129-3.643s2.928-1.293,4.729-1.293
				c1.821,0,3.402,0.432,4.744,1.293s2.385,2.076,3.129,3.643s1.116,3.398,1.116,5.493c0,2.097-0.367,3.922-1.102,5.479
				c-0.734,1.557-1.777,2.766-3.129,3.627C38.649,94.196,37.063,94.627,35.241,94.627z M35.241,94.039
				c1.723,0,3.212-0.4,4.465-1.204c1.254-0.803,2.223-1.938,2.908-3.407s1.028-3.203,1.028-5.2c0-2.017-0.343-3.761-1.028-5.229
				s-1.654-2.604-2.908-3.407c-1.253-0.803-2.742-1.204-4.465-1.204c-1.704,0-3.183,0.401-4.436,1.204
				c-1.254,0.804-2.224,1.938-2.908,3.407c-0.686,1.469-1.028,3.213-1.028,5.229c0,1.997,0.343,3.731,1.028,5.2
				c0.685,1.469,1.654,2.604,2.908,3.407C32.059,93.639,33.537,94.039,35.241,94.039z"/>
			<path style="&st98;" d="M52.015,94.451V73.975h0.97l8.138,18.361h-0.177l8.138-18.361h0.939v20.477h-0.587v-19.83h-0.029
				l-8.079,18.214H60.71l-8.078-18.214h-0.029v19.83H52.015z"/>
			<path style="&st98;" d="M86.768,94.627c-1.803,0-3.379-0.431-4.729-1.293c-1.352-0.861-2.395-2.07-3.129-3.627
				c-0.734-1.558-1.102-3.383-1.102-5.479c0-2.095,0.367-3.927,1.102-5.493s1.777-2.781,3.129-3.643
				c1.351-0.861,2.927-1.293,4.729-1.293c1.821,0,3.402,0.432,4.744,1.293c1.341,0.861,2.384,2.076,3.128,3.643
				s1.117,3.398,1.117,5.493c0,2.097-0.367,3.922-1.102,5.479c-0.734,1.557-1.777,2.766-3.129,3.627
				C90.175,94.196,88.589,94.627,86.768,94.627z M86.768,94.039c1.723,0,3.211-0.4,4.465-1.204c1.253-0.803,2.223-1.938,2.908-3.407
				s1.028-3.203,1.028-5.2c0-2.017-0.343-3.761-1.028-5.229s-1.655-2.604-2.908-3.407c-1.254-0.803-2.742-1.204-4.465-1.204
				c-1.704,0-3.183,0.401-4.437,1.204c-1.253,0.804-2.223,1.938-2.908,3.407s-1.028,3.213-1.028,5.229
				c0,1.997,0.343,3.731,1.028,5.2s1.655,2.604,2.908,3.407C83.585,93.639,85.063,94.039,86.768,94.039z"/>
			<path style="&st98;" d="M114.116,94.451V73.975h5.023c2.057,0,3.662,0.49,4.818,1.469c1.154,0.98,1.732,2.352,1.732,4.113
				c0,1.744-0.572,3.104-1.719,4.084c-1.146,0.979-2.756,1.469-4.832,1.469h-4.436v9.342H114.116z M114.704,84.551h4.406
				c1.88,0,3.349-0.436,4.406-1.307s1.587-2.102,1.587-3.688s-0.524-2.82-1.572-3.701s-2.521-1.322-4.421-1.322h-4.406V84.551z"/>
			<path style="&st98;" d="M138.852,94.627c-2.193,0-3.888-0.656-5.082-1.969c-1.194-1.312-1.792-3.182-1.792-5.61V73.975h0.588
				v13.044c0,1.509,0.239,2.786,0.72,3.833c0.479,1.049,1.185,1.842,2.114,2.38c0.931,0.539,2.081,0.808,3.452,0.808
				c1.391,0,2.556-0.279,3.496-0.837c0.939-0.558,1.654-1.37,2.145-2.438c0.489-1.066,0.734-2.365,0.734-3.893V73.975h0.587V86.9
				c0,2.488-0.602,4.397-1.807,5.729C142.803,93.961,141.084,94.627,138.852,94.627z"/>
			<path style="&st98;" d="M154.215,94.451V73.975h13.19v0.559h-12.603v9.313h11.075v0.559h-11.075v9.488h12.603v0.559H154.215z"/>
			<path style="&st98;" d="M174.484,94.451V73.975h0.823l11.985,19.771V73.975h0.588v20.477h-0.853L175.043,74.68h0.029v19.771
				H174.484z"/>
			<path style="&st98;" d="M202.128,94.451V74.533h-7.727v-0.559h16.069v0.559h-7.726v19.918H202.128z"/>
			<path style="&st98;" d="M217.021,94.451V73.975h13.19v0.559h-12.603v9.313h11.074v0.559h-11.074v9.488h12.603v0.559H217.021z"/>
			<path style="&st98;" d="M247.866,94.451V73.975h5.023c2.057,0,3.662,0.49,4.818,1.469c1.155,0.98,1.732,2.352,1.732,4.113
				c0,1.744-0.572,3.104-1.718,4.084c-1.146,0.979-2.757,1.469-4.833,1.469h-4.436v9.342H247.866z M248.454,84.551h4.406
				c1.881,0,3.35-0.436,4.406-1.307c1.059-0.871,1.587-2.102,1.587-3.688s-0.524-2.82-1.571-3.701
				c-1.049-0.881-2.522-1.322-4.422-1.322h-4.406V84.551z"/>
			<path style="&st98;" d="M262.555,94.451l7.139-20.477h0.734l7.168,20.477h-0.676l-6.845-19.83l-6.845,19.83H262.555z
				 M265.14,88.34l0.206-0.558h9.459l0.206,0.558H265.14z"/>
			<path style="&st98;" d="M284.44,94.451V73.975h5.023c1.41,0,2.604,0.211,3.584,0.633c0.979,0.421,1.719,1.037,2.218,1.85
				c0.499,0.813,0.749,1.807,0.749,2.982c0,1.469-0.422,2.658-1.264,3.568c-0.842,0.912-2.085,1.494-3.73,1.748
				c-0.255,0.021-0.543,0.04-0.866,0.06s-0.612,0.029-0.867,0.029h-4.259v9.606H284.44z M285.028,84.287h4.406
				c1.292,0,2.384-0.187,3.275-0.559c0.891-0.372,1.566-0.92,2.027-1.646c0.459-0.724,0.689-1.605,0.689-2.644
				c0-1.077-0.234-1.979-0.705-2.703c-0.47-0.725-1.15-1.272-2.041-1.645c-0.892-0.372-1.974-0.559-3.246-0.559h-4.406V84.287z
				 M296.396,94.451l-5.61-9.783l0.616-0.088l5.67,9.871H296.396z"/>
			<path style="&st98;" d="M302.536,94.451l7.139-20.477h0.734l7.168,20.477h-0.676l-6.845-19.83l-6.845,19.83H302.536z
				 M305.121,88.34l0.206-0.558h9.459l0.205,0.558H305.121z"/>
		</g>
	</g>
	<rect y="102.146" style="&st63;" width="319" height="92.135"/>
	<g>
		<path style="&st30;" d="M3.535,10.953h7.438v40.569h12.238v6.761H3.535V10.953z"/>
		<path style="&st30;" d="M33.556,10.953H43.63l7.708,47.33H43.9l-1.353-9.398v0.136h-8.451l-1.353,9.263h-6.896L33.556,10.953z
			 M41.669,42.598l-3.313-23.395h-0.135l-3.245,23.395H41.669z"/>
		<path style="&st30;" d="M73.04,17.715h-7.775v-6.762h22.988v6.762h-7.775v40.568H73.04V17.715z"/>
		<path style="&st30;" d="M92.581,10.953h20.283v6.762h-12.846v12.509h10.209v6.762h-10.209v14.537h12.846v6.761H92.581V10.953z"/>
		<path style="&st30;" d="M120.2,55.917c-1.871-2.028-2.806-4.89-2.806-8.587V21.907c0-3.695,0.935-6.559,2.806-8.587
			c1.87-2.028,4.586-3.043,8.147-3.043c3.561,0,6.276,1.015,8.147,3.043c1.87,2.028,2.807,4.892,2.807,8.587v5.003h-7.032v-5.477
			c0-2.93-1.24-4.395-3.719-4.395c-2.479,0-3.719,1.465-3.719,4.395v26.438c0,2.885,1.239,4.327,3.719,4.327
			c2.479,0,3.719-1.442,3.719-4.327v-7.234h7.032v6.693c0,3.697-0.937,6.559-2.807,8.587c-1.871,2.028-4.587,3.043-8.147,3.043
			C124.786,58.96,122.07,57.945,120.2,55.917z"/>
		<path style="&st30;" d="M144.508,10.953h9.33l7.235,28.331h0.135V10.953h6.626v47.33h-7.64l-8.926-34.551h-0.135v34.551h-6.626
			V10.953z"/>
		<path style="&st30;" d="M176.488,55.85c-1.938-2.072-2.907-5.004-2.907-8.79V22.178c0-3.787,0.969-6.716,2.907-8.79
			c1.938-2.073,4.732-3.11,8.384-3.11s6.445,1.037,8.385,3.11c1.938,2.074,2.907,5.003,2.907,8.79V47.06
			c0,3.786-0.97,6.718-2.907,8.79c-1.939,2.074-4.733,3.11-8.385,3.11S178.426,57.924,176.488,55.85z M188.727,47.533V21.705
			c0-3.111-1.285-4.666-3.854-4.666s-3.854,1.555-3.854,4.666v25.828c0,3.109,1.284,4.665,3.854,4.665
			S188.727,50.643,188.727,47.533z"/>
		<path style="&st30;" d="M201.91,10.953h7.438v40.569h12.238v6.761H201.91V10.953z"/>
		<path style="&st30;" d="M228.009,55.85c-1.938-2.072-2.907-5.004-2.907-8.79V22.178c0-3.787,0.969-6.716,2.907-8.79
			c1.938-2.073,4.733-3.11,8.385-3.11s6.445,1.037,8.384,3.11c1.938,2.074,2.907,5.003,2.907,8.79V47.06
			c0,3.786-0.97,6.718-2.907,8.79c-1.938,2.074-4.732,3.11-8.384,3.11S229.947,57.924,228.009,55.85z M240.247,47.533V21.705
			c0-3.111-1.284-4.666-3.854-4.666s-3.854,1.555-3.854,4.666v25.828c0,3.109,1.285,4.665,3.854,4.665
			S240.247,50.643,240.247,47.533z"/>
		<path style="&st30;" d="M255.73,55.883c-1.893-2.05-2.84-4.991-2.84-8.823V22.178c0-3.83,0.947-6.771,2.84-8.824
			c1.894-2.051,4.643-3.076,8.249-3.076c3.605,0,6.355,1.025,8.249,3.076c1.894,2.053,2.84,4.994,2.84,8.824v4.057h-7.032v-4.529
			c0-3.111-1.284-4.666-3.854-4.666s-3.854,1.555-3.854,4.666v25.896c0,3.065,1.285,4.598,3.854,4.598s3.854-1.532,3.854-4.598
			v-9.263h-3.719v-6.762h10.751V47.06c0,3.832-0.946,6.773-2.84,8.823c-1.894,2.053-4.644,3.077-8.249,3.077
			C260.373,58.96,257.624,57.936,255.73,55.883z"/>
		<path style="&st30;" d="M285.007,0h8.114l-7.235,7.775h-5.611L285.007,0z M280.612,10.953h7.438v47.33h-7.438V10.953z"/>
		<path style="&st30;" d="M300.084,10.953h10.074l7.708,47.33h-7.438l-1.352-9.398v0.136h-8.452l-1.353,9.263h-6.896L300.084,10.953
			z M308.198,42.598l-3.313-23.395h-0.136l-3.245,23.395H308.198z"/>
	</g>
	<g>
		<path style="&st30;" d="M17.028,119.074h9.542v52.046h15.7v8.675H17.028V119.074z"/>
		<path style="&st30;" d="M55.542,119.074h12.925l9.889,60.721h-9.542l-1.734-12.058v0.173H56.235l-1.734,11.885h-8.848
			L55.542,119.074z M65.951,159.67L61.7,129.657h-0.173l-4.164,30.013H65.951z"/>
		<path style="&st30;" d="M96.222,119.074h9.629l6.245,47.102h0.174l6.245-47.102h8.762l-9.195,60.721h-12.664L96.222,119.074z"/>
		<path style="&st30;" d="M132.826,119.074h26.023v8.675h-16.481v16.048h13.098v8.674h-13.098v18.649h16.481v8.675h-26.023V119.074z
			"/>
		<path style="&st30;" d="M165.268,119.074h14.139c4.915,0,8.501,1.143,10.757,3.427c2.255,2.285,3.383,5.798,3.383,10.539v3.729
			c0,6.305-2.082,10.295-6.246,11.971v0.174c2.313,0.693,3.947,2.111,4.901,4.25c0.954,2.141,1.431,5.003,1.431,8.588v10.67
			c0,1.734,0.058,3.137,0.174,4.207c0.115,1.07,0.404,2.125,0.867,3.166h-9.715c-0.347-0.982-0.579-1.908-0.694-2.776
			c-0.116-0.867-0.173-2.429-0.173-4.685v-11.103c0-2.776-0.449-4.712-1.345-5.812c-0.897-1.098-2.443-1.648-4.641-1.648h-3.296
			v26.023h-9.542V119.074z M178.278,145.098c1.909,0,3.34-0.49,4.294-1.475c0.954-0.982,1.432-2.631,1.432-4.945v-4.684
			c0-2.197-0.391-3.787-1.171-4.771c-0.781-0.983-2.01-1.475-3.687-1.475h-4.337v17.349H178.278z"/>
		<path style="&st30;" d="M201.179,119.074h14.573c4.741,0,8.297,1.273,10.669,3.816c2.371,2.546,3.557,6.275,3.557,11.19v30.707
			c0,4.915-1.186,8.646-3.557,11.189c-2.372,2.546-5.928,3.817-10.669,3.817h-14.573V119.074z M215.578,171.12
			c1.562,0,2.761-0.462,3.6-1.388c0.838-0.924,1.258-2.429,1.258-4.511v-31.574c0-2.082-0.42-3.585-1.258-4.511
			c-0.839-0.924-2.038-1.388-3.6-1.388h-4.857v43.371H215.578z"/>
		<path style="&st30;" d="M244.55,119.074h12.925l9.889,60.721h-9.542l-1.735-12.058v0.173h-10.843l-1.734,11.885h-8.848
			L244.55,119.074z M254.959,159.67l-4.251-30.013h-0.173l-4.164,30.013H254.959z"/>
		<path style="&st30;" d="M272.913,119.074h14.573c4.74,0,8.297,1.273,10.669,3.816c2.37,2.546,3.557,6.275,3.557,11.19v30.707
			c0,4.915-1.187,8.646-3.557,11.189c-2.372,2.546-5.929,3.817-10.669,3.817h-14.573V119.074z M287.313,171.12
			c1.562,0,2.761-0.462,3.6-1.388c0.838-0.924,1.258-2.429,1.258-4.511v-31.574c0-2.082-0.42-3.585-1.258-4.511
			c-0.839-0.924-2.038-1.388-3.6-1.388h-4.857v43.371H287.313z"/>
	</g>
</g>
</svg>
