<?xml version="1.0" encoding="utf-8"?>
<!-- Generator: Adobe Illustrator 16.0.0, SVG Export Plug-In . SVG Version: 6.00 Build 0)  -->
<!DOCTYPE svg PUBLIC "-//W3C//DTD SVG 1.1//EN" "http://www.w3.org/Graphics/SVG/1.1/DTD/svg11.dtd" [
	<!ENTITY st0 "clip-path:url(#SVGID_8_);fill:#F6F7F5;">
	<!ENTITY st1 "fill:#48575C;">
	<!ENTITY st2 "fill:#7D252A;">
	<!ENTITY st3 "fill:#7E523F;">
	<!ENTITY st4 "fill:#7FA7C6;">
	<!ENTITY st5 "fill:#AF4141;">
	<!ENTITY st6 "fill:#E0E3E2;">
	<!ENTITY st7 "fill:#E1877F;">
	<!ENTITY st8 "fill:#E194B4;">
	<!ENTITY st9 "fill:#E1E1E1;">
	<!ENTITY st10 "fill:#E2916A;">
	<!ENTITY st11 "fill:#E29BA1;">
	<!ENTITY st12 "fill:#E5946F;">
	<!ENTITY st13 "clip-path:url(#SVGID_26_);fill:#D76163;">
	<!ENTITY st14 "fill:#E69C77;">
	<!ENTITY st15 "fill:#182E34;">
	<!ENTITY st16 "fill:#E6E8E6;">
	<!ENTITY st17 "fill:#E7A09B;">
	<!ENTITY st18 "fill:#E7A47D;">
	<!ENTITY st19 "fill:#19393F;">
	<!ENTITY st20 "fill:#E87A69;">
	<!ENTITY st21 "fill:#E8A681;">
	<!ENTITY st22 "fill:#E8B100;">
	<!ENTITY st23 "clip-path:url(#SVGID_12_);fill:#E1E1E1;">
	<!ENTITY st24 "fill:#B2B2B2;">
	<!ENTITY st25 "fill:#B2BEC4;">
	<!ENTITY st26 "clip-path:url(#SVGID_28_);fill:#00292F;">
	<!ENTITY st27 "fill:#B4B4B4;">
	<!ENTITY st28 "fill:#B7B8B8;">
	<!ENTITY st29 "fill:#B87761;">
	<!ENTITY st30 "fill:#1E120D;">
	<!ENTITY st31 "fill:#ECB49A;">
	<!ENTITY st32 "fill:#ECB5BD;">
	<!ENTITY st33 "clip-path:url(#SVGID_4_);fill:#DCDDDC;">
	<!ENTITY st34 "fill:#ECECEB;">
	<!ENTITY st35 "fill:#ECEEED;">
	<!ENTITY st36 "fill:#ED9890;">
	<!ENTITY st37 "fill:#EE9972;">
	<!ENTITY st38 "fill:#EEEEEB;">
	<!ENTITY st39 "fill:#EEEFEC;">
	<!ENTITY st40 "clip-path:url(#SVGID_28_);fill:#D76163;">
	<!ENTITY st41 "clip-path:url(#SVGID_16_);fill:#41032E;">
	<!ENTITY st42 "fill:#BB7464;">
	<!ENTITY st43 "clip-path:url(#SVGID_10_);fill:#F6F7F5;">
	<!ENTITY st44 "fill:#8E4747;">
	<!ENTITY st45 "clip-path:url(#SVGID_32_);fill:#F6D1BE;">
	<!ENTITY st46 "clip-path:url(#SVGID_22_);fill:#8FC7E3;">
	<!ENTITY st47 "fill:#8FC7E3;">
	<!ENTITY st48 "fill:#214248;">
	<!ENTITY st49 "fill:#F0C655;">
	<!ENTITY st50 "fill:#F0F0EF;">
	<!ENTITY st51 "fill:#F1AD93;">
	<!ENTITY st52 "fill:#F1C95A;">
	<!ENTITY st53 "fill:#F3B79C;">
	<!ENTITY st54 "fill:#F3C0C0;">
	<!ENTITY st55 "fill:#F3F4F3;">
	<!ENTITY st56 "fill:#F4F4F4;">
	<!ENTITY st57 "fill:#F5DADD;">
	<!ENTITY st58 "fill:#F6D1BE;">
	<!ENTITY st59 "fill:#F6F6F5;">
	<!ENTITY st60 "fill:#F6F7F5;">
	<!ENTITY st61 "fill:#29444C;">
	<!ENTITY st62 "fill:#F8E3DF;">
	<!ENTITY st63 "fill:#F9C529;">
	<!ENTITY st64 "clip-path:url(#SVGID_2_);">
	<!ENTITY st65 "clip-path:url(#SVGID_18_);fill:#41032E;">
	<!ENTITY st66 "fill:#C25C43;">
	<!ENTITY st67 "clip-path:url(#SVGID_12_);fill:#F6F7F5;">
	<!ENTITY st68 "fill:#956154;">
	<!ENTITY st69 "clip-path:url(#SVGID_34_);fill:#F8F9F8;">
	<!ENTITY st70 "fill:#C7C8C9;">
	<!ENTITY st71 "fill:#FCFCFC;">
	<!ENTITY st72 "fill:#C9C8C8;">
	<!ENTITY st73 "opacity:0.2;">
	<!ENTITY st74 "fill:#60757C;">
	<!ENTITY st75 "clip-path:url(#SVGID_4_);fill:#EEEEEB;">
	<!ENTITY st76 "clip-path:url(#SVGID_24_);fill:#F6F7F5;">
	<!ENTITY st77 "fill:#FF6265;">
	<!ENTITY st78 "fill:#FFFFFF;">
	<!ENTITY st79 "fill:#62797F;">
	<!ENTITY st80 "clip-path:url(#SVGID_16_);fill:#ECB5BD;">
	<!ENTITY st81 "clip-path:url(#SVGID_30_);fill:#D76163;">
	<!ENTITY st82 "fill:#68649D;">
	<!ENTITY st83 "fill:#9C9A9A;">
	<!ENTITY st84 "fill:#CC5E44;">
	<!ENTITY st85 "fill:#CCA7A8;">
	<!ENTITY st86 "fill:#9E534E;">
	<!ENTITY st87 "fill:#CDCED0;">
	<!ENTITY st88 "clip-path:url(#SVGID_8_);fill:#E1E1E1;">
	<!ENTITY st89 "fill:#345962;">
	<!ENTITY st90 "fill:#36565F;">
	<!ENTITY st91 "clip-path:url(#SVGID_6_);fill:#EEEEEB;">
	<!ENTITY st92 "clip-path:url(#SVGID_24_);fill:#FFFFFF;">
	<!ENTITY st93 "fill:#6C6AA1;">
	<!ENTITY st94 "fill:#001016;">
	<!ENTITY st95 "fill:#001218;">
	<!ENTITY st96 "fill:#002126;">
	<!ENTITY st97 "fill:#00292F;">
	<!ENTITY st98 "fill:#010002;">
	<!ENTITY st99 "fill:#D19D00;">
	<!ENTITY st100 "clip-path:url(#SVGID_20_);fill:#41032E;">
	<!ENTITY st101 "clip-path:url(#SVGID_30_);fill:#7D252A;">
	<!ENTITY st102 "fill:#D76163;">
	<!ENTITY st103 "fill:#D7886E;">
	<!ENTITY st104 "fill:#D9684E;">
	<!ENTITY st105 "clip-path:url(#SVGID_30_);fill:#E5946F;">
	<!ENTITY st106 "fill:#7479AC;">
	<!ENTITY st107 "fill:#A46A55;">
	<!ENTITY st108 "fill:#754533;">
	<!ENTITY st109 "fill:#A4A1A1;">
	<!ENTITY st110 "fill:#A4A2A2;">
	<!ENTITY st111 "fill:#DA8D78;">
	<!ENTITY st112 "fill:#A6A4A4;">
	<!ENTITY st113 "fill:#A8AEB0;">
	<!ENTITY st114 "fill:#DCD2D8;">
	<!ENTITY st115 "fill:#DCDDDC;">
	<!ENTITY st116 "fill:#DD7665;">
	<!ENTITY st117 "fill:#DD787D;">
	<!ENTITY st118 "clip-path:url(#SVGID_22_);fill:#41032E;">
	<!ENTITY st119 "fill:#DE7E6C;">
	<!ENTITY st120 "fill:#41032E;">
	<!ENTITY st121 "fill:#DF7F73;">
	<!ENTITY st122 "fill:#DFBAB9;">
	<!ENTITY st123 "fill:#DFE0E0;">
	<!ENTITY st124 "clip-path:url(#SVGID_20_);fill:#E7A47D;">
	<!ENTITY st125 "fill:#445355;">
	<!ENTITY st126 "clip-path:url(#SVGID_32_);fill:#E0E3E2;">
	<!ENTITY st127 "clip-path:url(#SVGID_10_);fill:#E1E1E1;">
	<!ENTITY st128 "clip-path:url(#SVGID_26_);fill:#36565F;">
]>
<svg version="1.1" id="Layer_1" xmlns="http://www.w3.org/2000/svg" xmlns:xlink="http://www.w3.org/1999/xlink" x="0px" y="0px"
	  viewBox="0 0 436.736 156.654" style="enable-background:new 0 0 436.736 156.654;"
	 xml:space="preserve">
<g>
	<g>
		<g>
			<path style="&st98;" d="M10.478,99.838c-1.724,0-3.23-0.412-4.522-1.236c-1.292-0.823-2.29-1.984-2.992-3.482
				S1.91,91.87,1.91,89.866s0.351-3.75,1.053-5.239c0.702-1.488,1.7-2.645,2.992-3.469s2.799-1.236,4.522-1.236
				c1.798,0,3.352,0.445,4.663,1.334c1.311,0.891,2.266,2.112,2.864,3.666L17.5,85.119c-0.544-1.386-1.409-2.505-2.599-3.357
				c-1.189-0.852-2.664-1.277-4.424-1.277c-1.63,0-3.044,0.384-4.242,1.151c-1.198,0.769-2.125,1.854-2.78,3.259
				c-0.656,1.404-0.983,3.062-0.983,4.972s0.327,3.572,0.983,4.985c0.655,1.414,1.582,2.506,2.78,3.273s2.612,1.151,4.242,1.151
				c1.76,0,3.234-0.426,4.424-1.278c1.189-0.852,2.055-1.971,2.599-3.357l0.505,0.197c-0.599,1.555-1.559,2.776-2.879,3.666
				S12.256,99.838,10.478,99.838z"/>
			<path style="&st98;" d="M32.612,99.838c-1.724,0-3.23-0.412-4.522-1.236c-1.292-0.823-2.289-1.98-2.991-3.469
				c-0.703-1.488-1.054-3.234-1.054-5.238s0.351-3.755,1.054-5.254c0.702-1.497,1.699-2.658,2.991-3.482s2.799-1.236,4.522-1.236
				c1.741,0,3.254,0.412,4.536,1.236s2.28,1.985,2.992,3.482c0.711,1.499,1.067,3.25,1.067,5.254s-0.352,3.75-1.054,5.238
				s-1.699,2.646-2.991,3.469C35.87,99.426,34.354,99.838,32.612,99.838z M32.612,99.276c1.647,0,3.071-0.384,4.27-1.151
				s2.125-1.854,2.781-3.259c0.655-1.405,0.982-3.062,0.982-4.972c0-1.929-0.327-3.596-0.982-5c-0.656-1.404-1.583-2.49-2.781-3.259
				c-1.198-0.768-2.622-1.151-4.27-1.151c-1.629,0-3.043,0.384-4.242,1.151c-1.198,0.769-2.125,1.854-2.78,3.259
				c-0.656,1.404-0.983,3.071-0.983,5c0,1.91,0.327,3.566,0.983,4.972c0.655,1.404,1.582,2.491,2.78,3.259
				C29.569,98.893,30.983,99.276,32.612,99.276z"/>
			<path style="&st98;" d="M48.651,99.67V80.091h0.927l7.781,17.556H57.19l7.781-17.556h0.898V99.67h-0.562V80.709H65.28
				l-7.725,17.416h-0.59l-7.725-17.416h-0.028V99.67H48.651z"/>
			<path style="&st98;" d="M81.882,99.838c-1.724,0-3.23-0.412-4.522-1.236c-1.292-0.823-2.29-1.98-2.992-3.469
				s-1.053-3.234-1.053-5.238s0.351-3.755,1.053-5.254c0.702-1.497,1.7-2.658,2.992-3.482s2.799-1.236,4.522-1.236
				c1.741,0,3.253,0.412,4.536,1.236c1.282,0.824,2.279,1.985,2.991,3.482c0.712,1.499,1.067,3.25,1.067,5.254
				s-0.351,3.75-1.053,5.238s-1.7,2.646-2.992,3.469C85.14,99.426,83.623,99.838,81.882,99.838z M81.882,99.276
				c1.647,0,3.07-0.384,4.27-1.151c1.198-0.768,2.125-1.854,2.78-3.259c0.655-1.405,0.983-3.062,0.983-4.972
				c0-1.929-0.328-3.596-0.983-5s-1.582-2.49-2.78-3.259c-1.199-0.768-2.622-1.151-4.27-1.151c-1.63,0-3.044,0.384-4.242,1.151
				c-1.198,0.769-2.125,1.854-2.78,3.259c-0.656,1.404-0.983,3.071-0.983,5c0,1.91,0.327,3.566,0.983,4.972
				c0.655,1.404,1.582,2.491,2.78,3.259S80.252,99.276,81.882,99.276z"/>
		</g>
	</g>
	<rect x="105.632" y="71.905" style="&st77;" width="326.983" height="82.195"/>
	<g>
		<path style="&st30;" d="M2.933,10.142h11.021c3.831,0,6.626,0.891,8.385,2.671c1.758,1.781,2.637,4.52,2.637,8.215v2.908
			c0,4.913-1.623,8.023-4.868,9.33V33.4c1.802,0.541,3.076,1.646,3.82,3.314c0.743,1.668,1.115,3.898,1.115,6.693v8.316
			c0,1.352,0.045,2.445,0.135,3.279s0.315,1.656,0.677,2.468H18.28c-0.271-0.767-0.451-1.487-0.541-2.163
			c-0.09-0.677-0.135-1.894-0.135-3.652v-8.654c0-2.164-0.35-3.673-1.048-4.529c-0.699-0.856-1.905-1.285-3.617-1.285H10.37v20.284
			H2.933V10.142z M13.074,30.426c1.487,0,2.604-0.383,3.347-1.149c0.744-0.766,1.116-2.05,1.116-3.854v-3.65
			c0-1.713-0.305-2.951-0.913-3.719c-0.608-0.766-1.566-1.149-2.873-1.149H10.37v13.522H13.074z"/>
		<path style="&st30;" d="M30.925,10.142h20.284v6.762H38.362v12.509h10.209v6.762H38.362v14.537h12.847v6.761H30.925V10.142z"/>
		<path style="&st30;" d="M58.511,55.071c-1.894-2.05-2.84-4.991-2.84-8.823V21.365c0-3.83,0.946-6.771,2.84-8.823
			c1.893-2.051,4.642-3.076,8.249-3.076c3.605,0,6.355,1.025,8.249,3.076c1.893,2.052,2.84,4.993,2.84,8.823v4.057h-7.032v-4.529
			c0-3.11-1.285-4.666-3.854-4.666s-3.854,1.556-3.854,4.666v25.896c0,3.065,1.284,4.598,3.854,4.598s3.854-1.532,3.854-4.598
			v-9.264h-3.719v-6.762h10.751v15.484c0,3.832-0.947,6.773-2.84,8.823c-1.894,2.052-4.644,3.077-8.249,3.077
			C63.152,58.148,60.403,57.123,58.511,55.071z"/>
		<path style="&st30;" d="M83.392,10.142h7.438v47.33h-7.438V10.142z"/>
		<path style="&st30;" d="M98.604,55.071c-1.85-2.05-2.772-4.991-2.772-8.823v-2.705h7.032v3.246c0,3.065,1.284,4.598,3.854,4.598
			c1.262,0,2.22-0.372,2.874-1.115c0.652-0.744,0.98-1.949,0.98-3.618c0-1.983-0.451-3.729-1.353-5.24
			c-0.902-1.509-2.569-3.323-5.004-5.442c-3.065-2.705-5.206-5.149-6.423-7.336s-1.826-4.654-1.826-7.404
			c0-3.74,0.947-6.637,2.84-8.688c1.894-2.051,4.643-3.076,8.249-3.076c3.561,0,6.255,1.025,8.08,3.076
			c1.826,2.052,2.738,4.993,2.738,8.823v1.961h-7.031v-2.434c0-1.623-0.316-2.807-0.947-3.55c-0.632-0.743-1.555-1.116-2.771-1.116
			c-2.48,0-3.719,1.512-3.719,4.531c0,1.713,0.461,3.313,1.386,4.8c0.923,1.487,2.603,3.291,5.037,5.409
			c3.11,2.705,5.251,5.162,6.423,7.37c1.172,2.209,1.759,4.801,1.759,7.775c0,3.878-0.958,6.853-2.874,8.925
			c-1.916,2.074-4.699,3.111-8.351,3.111C103.179,58.148,100.452,57.123,98.604,55.071z"/>
		<path style="&st30;" d="M128.827,16.903h-7.775v-6.762h22.988v6.762h-7.775v40.568h-7.438V16.903z"/>
		<path style="&st30;" d="M148.368,10.142h11.021c3.831,0,6.626,0.891,8.384,2.671c1.759,1.781,2.638,4.52,2.638,8.215v2.908
			c0,4.913-1.623,8.023-4.868,9.33V33.4c1.802,0.541,3.076,1.646,3.82,3.314c0.743,1.668,1.115,3.898,1.115,6.693v8.316
			c0,1.352,0.044,2.445,0.135,3.279c0.09,0.834,0.315,1.656,0.677,2.468h-7.573c-0.271-0.767-0.451-1.487-0.541-2.163
			c-0.091-0.677-0.135-1.894-0.135-3.652v-8.654c0-2.164-0.35-3.673-1.048-4.529c-0.7-0.856-1.905-1.285-3.618-1.285h-2.568v20.284
			h-7.438V10.142z M158.51,30.426c1.487,0,2.604-0.383,3.347-1.149c0.744-0.766,1.116-2.05,1.116-3.854v-3.65
			c0-1.713-0.305-2.951-0.913-3.719c-0.608-0.766-1.566-1.149-2.874-1.149h-3.38v13.522H158.51z"/>
		<path style="&st30;" d="M178.727,55.037c-1.938-2.072-2.907-5.003-2.907-8.789V21.365c0-3.786,0.969-6.715,2.907-8.789
			c1.938-2.073,4.733-3.11,8.384-3.11c3.651,0,6.445,1.037,8.385,3.11c1.938,2.074,2.907,5.003,2.907,8.789v24.883
			c0,3.786-0.97,6.717-2.907,8.789c-1.939,2.074-4.733,3.111-8.385,3.111C183.46,58.148,180.664,57.111,178.727,55.037z
			 M190.965,46.721V20.893c0-3.11-1.285-4.666-3.854-4.666s-3.854,1.556-3.854,4.666v25.828c0,3.11,1.284,4.666,3.854,4.666
			S190.965,49.831,190.965,46.721z"/>
		<path style="&st30;" d="M218.043,55.105c-1.871-2.029-2.806-4.891-2.806-8.588V21.096c0-3.695,0.935-6.559,2.806-8.588
			c1.87-2.027,4.586-3.042,8.147-3.042c3.561,0,6.276,1.015,8.147,3.042c1.87,2.029,2.806,4.893,2.806,8.588v5.003h-7.031v-5.477
			c0-2.93-1.24-4.396-3.719-4.396c-2.479,0-3.719,1.466-3.719,4.396v26.437c0,2.886,1.239,4.328,3.719,4.328
			c2.479,0,3.719-1.442,3.719-4.328v-7.234h7.031v6.693c0,3.697-0.936,6.559-2.806,8.588c-1.871,2.028-4.587,3.043-8.147,3.043
			C222.629,58.148,219.913,57.134,218.043,55.105z"/>
		<path style="&st30;" d="M244.852,55.037c-1.938-2.072-2.907-5.003-2.907-8.789V21.365c0-3.786,0.969-6.715,2.907-8.789
			c1.938-2.073,4.733-3.11,8.384-3.11c3.651,0,6.446,1.037,8.385,3.11c1.938,2.074,2.907,5.003,2.907,8.789v24.883
			c0,3.786-0.97,6.717-2.907,8.789c-1.938,2.074-4.733,3.111-8.385,3.111C249.585,58.148,246.789,57.111,244.852,55.037z
			 M257.09,46.721V20.893c0-3.11-1.285-4.666-3.854-4.666s-3.854,1.556-3.854,4.666v25.828c0,3.11,1.284,4.666,3.854,4.666
			S257.09,49.831,257.09,46.721z"/>
		<path style="&st30;" d="M270.274,10.142h7.438v40.569h12.238v6.761h-19.676V10.142z"/>
		<path style="&st30;" d="M294.276,10.142h20.284v6.762h-12.847v12.509h10.21v6.762h-10.21v14.537h12.847v6.761h-20.284V10.142z"/>
		<path style="&st30;" d="M321.896,55.105c-1.871-2.029-2.806-4.891-2.806-8.588V21.096c0-3.695,0.935-6.559,2.806-8.588
			c1.87-2.027,4.586-3.042,8.147-3.042c3.561,0,6.276,1.015,8.147,3.042c1.87,2.029,2.806,4.893,2.806,8.588v5.003h-7.031v-5.477
			c0-2.93-1.24-4.396-3.719-4.396c-2.479,0-3.719,1.466-3.719,4.396v26.437c0,2.886,1.239,4.328,3.719,4.328
			c2.479,0,3.719-1.442,3.719-4.328v-7.234h7.031v6.693c0,3.697-0.936,6.559-2.806,8.588c-1.871,2.028-4.587,3.043-8.147,3.043
			C326.482,58.148,323.767,57.134,321.896,55.105z"/>
		<path style="&st30;" d="M352.019,16.903h-7.775v-6.762h22.988v6.762h-7.775v40.568h-7.438V16.903z"/>
		<path style="&st30;" d="M371.559,10.142h7.438v47.33h-7.438V10.142z"/>
		<path style="&st30;" d="M383.322,10.142h7.506l4.868,36.715h0.135l4.868-36.715h6.829l-7.167,47.33h-9.872L383.322,10.142z"/>
		<path style="&st30;" d="M414.086,55.037c-1.938-2.072-2.907-5.003-2.907-8.789V21.365c0-3.786,0.969-6.715,2.907-8.789
			c1.938-2.073,4.733-3.11,8.385-3.11s6.445,1.037,8.384,3.11c1.938,2.074,2.907,5.003,2.907,8.789v24.883
			c0,3.786-0.97,6.717-2.907,8.789c-1.938,2.074-4.732,3.111-8.384,3.111S416.024,57.111,414.086,55.037z M426.324,46.721V20.893
			c0-3.11-1.284-4.666-3.854-4.666s-3.854,1.556-3.854,4.666v25.828c0,3.11,1.285,4.666,3.854,4.666S426.324,49.831,426.324,46.721z
			"/>
	</g>
	<g>
		<path style="&st78;" d="M120.373,87.008h12.614c4.384,0,7.584,1.02,9.596,3.057c2.012,2.039,3.018,5.174,3.018,9.402v3.328
			c0,5.623-1.857,9.184-5.571,10.68v0.154c2.063,0.619,3.521,1.884,4.372,3.791c0.852,1.91,1.277,4.463,1.277,7.662v9.518
			c0,1.549,0.051,2.8,0.154,3.754c0.103,0.955,0.36,1.896,0.773,2.824h-8.667c-0.31-0.877-0.516-1.703-0.619-2.477
			s-0.154-2.166-0.154-4.179v-9.905c0-2.477-0.4-4.204-1.199-5.185c-0.801-0.979-2.181-1.47-4.141-1.47h-2.94v23.215h-8.513V87.008z
			 M131.981,110.224c1.702,0,2.979-0.438,3.83-1.315c0.852-0.877,1.277-2.347,1.277-4.41v-4.18c0-1.96-0.349-3.378-1.045-4.256
			c-0.696-0.877-1.793-1.315-3.289-1.315h-3.869v15.477H131.981z"/>
		<path style="&st78;" d="M152.411,87.008h23.215v7.739h-14.703v14.315h11.686v7.739h-11.686v16.638h14.703v7.738h-23.215V87.008z"
			/>
		<path style="&st78;" d="M183.209,138.431c-2.116-2.347-3.173-5.714-3.173-10.099v-3.096h8.048v3.715
			c0,3.509,1.471,5.262,4.411,5.262c1.443,0,2.541-0.426,3.289-1.277c0.747-0.851,1.122-2.23,1.122-4.139
			c0-2.27-0.517-4.27-1.548-5.998c-1.032-1.729-2.94-3.804-5.727-6.229c-3.509-3.095-5.958-5.894-7.352-8.396
			c-1.393-2.502-2.089-5.327-2.089-8.475c0-4.281,1.083-7.596,3.25-9.943s5.313-3.521,9.44-3.521c4.075,0,7.158,1.174,9.248,3.521
			c2.089,2.348,3.134,5.714,3.134,10.099v2.244h-8.048v-2.786c0-1.857-0.361-3.211-1.084-4.063s-1.779-1.277-3.172-1.277
			c-2.838,0-4.257,1.729-4.257,5.186c0,1.961,0.528,3.791,1.587,5.494c1.057,1.702,2.979,3.766,5.765,6.19
			c3.56,3.096,6.01,5.908,7.352,8.435c1.341,2.529,2.013,5.494,2.013,8.9c0,4.438-1.097,7.842-3.289,10.215
			c-2.193,2.373-5.379,3.559-9.558,3.559C188.444,141.951,185.324,140.779,183.209,138.431z"/>
		<path style="&st78;" d="M211.145,87.008h8.513v54.17h-8.513V87.008z"/>
		<path style="&st78;" d="M228.555,138.431c-2.115-2.347-3.173-5.714-3.173-10.099v-3.096h8.049v3.715
			c0,3.509,1.47,5.262,4.41,5.262c1.444,0,2.541-0.426,3.289-1.277c0.747-0.851,1.122-2.23,1.122-4.139
			c0-2.27-0.517-4.27-1.548-5.998c-1.032-1.729-2.94-3.804-5.727-6.229c-3.509-3.095-5.958-5.894-7.352-8.396
			c-1.393-2.502-2.089-5.327-2.089-8.475c0-4.281,1.083-7.596,3.25-9.943s5.313-3.521,9.441-3.521c4.074,0,7.157,1.174,9.247,3.521
			s3.134,5.714,3.134,10.099v2.244h-8.048v-2.786c0-1.857-0.361-3.211-1.083-4.063c-0.724-0.852-1.78-1.277-3.173-1.277
			c-2.838,0-4.256,1.729-4.256,5.186c0,1.961,0.528,3.791,1.586,5.494c1.057,1.702,2.979,3.766,5.766,6.19
			c3.56,3.096,6.009,5.908,7.352,8.435c1.341,2.529,2.012,5.494,2.012,8.9c0,4.438-1.097,7.842-3.289,10.215
			c-2.193,2.373-5.378,3.559-9.557,3.559C233.791,141.951,230.67,140.779,228.555,138.431z"/>
		<path style="&st78;" d="M263.146,94.747h-8.899v-7.739h26.312v7.739h-8.899v46.431h-8.513V94.747z"/>
		<path style="&st78;" d="M285.51,87.008h23.216v7.739h-14.703v14.315h11.685v7.739h-11.685v16.638h14.703v7.738H285.51V87.008z"/>
		<path style="&st78;" d="M314.451,87.008h10.679l8.28,32.425h0.155V87.008h7.583v54.17h-8.744l-10.215-39.543h-0.155v39.543h-7.583
			V87.008z"/>
		<path style="&st78;" d="M351.015,138.469c-2.142-2.32-3.212-5.597-3.212-9.827V99.545c0-4.23,1.07-7.506,3.212-9.828
			c2.14-2.321,5.248-3.482,9.324-3.482c4.075,0,7.184,1.161,9.325,3.482c2.14,2.322,3.211,5.598,3.211,9.828v5.727h-8.048v-6.269
			c0-3.353-1.419-5.03-4.256-5.03c-2.838,0-4.256,1.678-4.256,5.03v30.257c0,3.303,1.418,4.953,4.256,4.953
			c2.837,0,4.256-1.65,4.256-4.953v-8.279h8.048v7.661c0,4.23-1.071,7.507-3.211,9.827c-2.142,2.322-5.25,3.482-9.325,3.482
			C356.263,141.951,353.154,140.791,351.015,138.469z"/>
		<path style="&st78;" d="M378.834,87.008h8.512v54.17h-8.512V87.008z"/>
		<path style="&st78;" d="M401.119,87.008h11.53l8.822,54.17h-8.513l-1.548-10.756v0.154h-9.673l-1.548,10.602h-7.893
			L401.119,87.008z M410.405,123.225l-3.792-26.775h-0.154l-3.715,26.775H410.405z"/>
	</g>
</g>
</svg>
