<svg xmlns="http://www.w3.org/2000/svg" xml:space="preserve" viewBox="0 0 176.854 171.687">
  <path fill="#c9c8c8" d="m36.316 144.81-8.305-8.723 50.914-48.468 8.305 8.724z"/>
  <path fill="#182e34" d="m0 158.493 12.559 13.194 35.557-33.845v-.001l-12.557-13.194z"/>
  <g fill="#29444c">
    <path d="M66.207 47.409c5.029-29.844 33.402-50.03 63.246-45s50.029 33.401 44.999 63.245-33.401 50.03-63.244 45c-29.844-5.031-50.031-33.403-45.001-63.245zm6.205 1.045c-4.453 26.423 13.42 51.542 39.84 55.995 26.424 4.454 51.543-13.419 55.995-39.841 4.454-26.422-13.418-51.541-39.841-55.995-26.422-4.454-51.542 13.419-55.994 39.841z"/>
    <path d="M135.336 111.037c-7.85 2.175-16.141 2.62-24.4 1.228-14.864-2.505-27.875-10.667-36.638-22.981C65.536 76.969 62.09 62 64.596 47.137 67.102 32.273 75.264 19.262 87.578 10.5 99.891 1.738 114.86-1.708 129.724.797c30.73 5.181 51.518 34.396 46.338 65.127-2.504 14.864-10.666 27.875-22.98 36.639-5.471 3.892-11.469 6.736-17.746 8.474zM106.192 5.176c-5.915 1.638-11.563 4.317-16.72 7.985-11.603 8.256-19.294 20.516-21.654 34.519-2.361 14.003.887 28.106 9.143 39.708 8.256 11.604 20.515 19.294 34.518 21.654a52.948 52.948 0 0 0 22.983-1.172c19.327-5.35 34.832-21.444 38.38-42.489C177.721 36.427 158.136 8.9 129.18 4.019c-7.779-1.311-15.592-.891-22.988 1.157zm27.474 99.793c-6.977 1.933-14.344 2.328-21.685 1.09-27.31-4.603-45.783-30.565-41.181-57.876 2.227-13.209 9.479-24.771 20.423-32.558s24.245-10.848 37.454-8.623c13.21 2.227 24.773 9.48 32.559 20.423 7.787 10.944 10.848 24.245 8.622 37.455-2.226 13.209-9.479 24.772-20.423 32.559a50.37 50.37 0 0 1-15.769 7.53zM74.021 48.726c-4.303 25.533 12.968 49.809 38.504 54.111 12.348 2.082 24.783-.781 35.016-8.062 10.233-7.28 17.015-18.092 19.096-30.44 2.082-12.348-.781-24.784-8.063-35.017-7.28-10.232-18.09-17.014-30.439-19.095-12.35-2.082-24.785.783-35.017 8.063-10.233 7.28-17.015 18.091-19.095 30.439h-.002z"/>
  </g>
  <g opacity=".2">
    <path fill="#fff" d="M121.48 9.855c-25.776-.636-47.198 19.743-47.833 45.528-.637 25.774 19.753 47.196 45.528 47.832 25.783.637 47.206-19.753 47.842-45.528.636-25.784-19.753-47.196-45.537-47.832z"/>
    <path fill="#ececeb" d="M108.355 11.392C88.8 16.562 74.164 34.138 73.646 55.387a46.805 46.805 0 0 0 1.429 12.721l33.28-56.716zm45.423 12.563-45.577 77.677a46.697 46.697 0 0 0 10.975 1.584 45.91 45.91 0 0 0 12.619-1.415l33.654-57.347a46.648 46.648 0 0 0-11.671-20.499zm-27.652-13.748L82.711 84.198a47.455 47.455 0 0 0 6.129 6.813l46.229-78.788a45.056 45.056 0 0 0-8.943-2.016zm22.886 9.489L102.15 99.551c.523.223 1.045.436 1.572.638l46.605-79.429a22.773 22.773 0 0 0-1.315-1.064zm17.886 40.336-20.797 35.444a45.349 45.349 0 0 0 3.391-2.475l16.914-28.826c.229-1.359.393-2.74.492-4.143z"/>
  </g>
  <path fill="#fff" d="M83.562 48.19c.897-5.012 3.059-9.786 5.925-14.077 1.422-2.164 3.122-4.143 4.953-5.997 1.858-1.831 3.92-3.459 6.102-4.907 4.416-2.82 9.434-4.692 14.564-5.425a40.459 40.459 0 0 1 15.265.711c-5.069.155-10.022.643-14.774 1.791-2.354.644-4.7 1.289-6.902 2.3-2.219.944-4.389 2.019-6.387 3.369-4.066 2.588-7.662 5.907-10.784 9.675a62.494 62.494 0 0 0-7.962 12.56z"/>
</svg>