<?xml version="1.0" encoding="utf-8"?>
<!-- Generator: Adobe Illustrator 16.0.0, SVG Export Plug-In . SVG Version: 6.00 Build 0)  -->
<!DOCTYPE svg PUBLIC "-//W3C//DTD SVG 1.1//EN" "http://www.w3.org/Graphics/SVG/1.1/DTD/svg11.dtd">
<svg version="1.1" id="Layer_1" xmlns="http://www.w3.org/2000/svg" xmlns:xlink="http://www.w3.org/1999/xlink" x="0px" y="0px"
	 width="401.759px" height="50.107px" viewBox="0 0 401.759 50.107" style="enable-background:new 0 0 401.759 50.107;"
	 xml:space="preserve">
<style type="text/css">
<![CDATA[
	.st0{display:none;fill:none;stroke:#FFFFFF;stroke-miterlimit:10;}
	.st1{display:none;fill:#010101;}
	.st2{fill:#F06597;}
	.st3{fill:none;stroke:#000000;stroke-width:3;stroke-miterlimit:10;}
	.st4{fill:none;stroke:#000000;stroke-width:3;}
]]>
</style>
<g>
	<g>
		<path d="M28.851,9.869v38.953H16.705V9.869H0V0h45.554v9.869H28.851z"/>
		<path d="M50.702,48.822V0h43.343v9.869H62.949v8.254h27.695v9.936H62.949v10.496h31.096v10.268H50.702z"/>
		<path d="M98.831,28.75h11.618v2.213c0,3.061,0.566,5.357,1.703,6.9c1.133,1.539,2.822,2.311,5.063,2.311
			c2.577,0,4.392-0.803,5.448-2.41c1.055-1.605,1.584-4.611,1.584-9.014V0h12.148v27.859c0,4.4-0.173,7.539-0.514,9.408
			c-0.34,1.871-0.93,3.49-1.767,4.854c-1.582,2.596-3.784,4.576-6.6,5.941c-2.819,1.363-6.118,2.045-9.901,2.045
			c-6.428,0-11.165-1.473-14.214-4.422c-3.047-2.949-4.57-7.535-4.57-13.766V28.75z"/>
		<path d="M146.893,48.822V0h43.341v9.869H159.14v8.254h27.695v9.936H159.14v10.496h31.094v10.268H146.893z"/>
		<path d="M198.189,48.822V0h30.006c6.516,0,11.313,1.066,14.393,3.199c3.078,2.137,4.623,5.449,4.623,9.939
			c0,2.861-0.721,5.391-2.164,7.592c-1.439,2.199-3.428,3.785-5.955,4.754c2.152,0.9,3.666,2.018,4.535,3.35
			c0.871,1.33,1.381,3.682,1.537,7.047c0.02,0.332,0.043,0.783,0.064,1.354c0.264,6.055,1.121,9.916,2.576,11.588H234.07
			c-0.328-0.527-0.574-1.111-0.742-1.75c-0.166-0.639-0.246-1.322-0.246-2.047v-3.303c0-4.488-0.578-7.428-1.736-8.813
			c-1.154-1.387-3.414-2.08-6.781-2.08h-0.299h-13.83v17.992H198.189z M210.435,20.828h13.83c3.652,0,6.223-0.445,7.711-1.336
			c1.482-0.891,2.227-2.361,2.227-4.406c0-1.98-0.693-3.369-2.08-4.16c-1.385-0.793-4.18-1.189-8.383-1.189h-13.305V20.828z"/>
		<path d="M292.4,48.822h-11.291V12.377H292.4v4.82c1.715-2.066,3.48-3.604,5.297-4.605c1.814-1,3.725-1.5,5.727-1.5
			c0.396,0,1.156,0.066,2.277,0.197c0.398,0.021,0.695,0.045,0.893,0.066v9.605c-0.375-0.043-0.805-0.078-1.289-0.098
			c-0.484-0.023-1.242-0.035-2.277-0.035c-3.301,0-5.898,1.035-7.789,3.104c-1.893,2.068-2.838,4.93-2.838,8.584V48.822z"/>
		<path d="M351.88,37.004c-1.496,4.182-4.092,7.412-7.787,9.689c-3.699,2.275-8.199,3.414-13.502,3.414
			c-6.734,0-12.064-1.752-15.994-5.264c-3.924-3.51-5.893-8.27-5.893-14.275c0-6.01,1.959-10.758,5.877-14.244
			c3.916-3.488,9.252-5.232,16.01-5.232c7.018,0,12.426,1.809,16.225,5.428c3.795,3.621,5.695,8.775,5.695,15.467v1.551h-31.098
			c0.064,2.664,0.93,4.783,2.594,6.354c1.658,1.576,3.854,2.363,6.584,2.363c2.133,0,3.971-0.457,5.512-1.371
			c1.541-0.912,2.65-2.207,3.334-3.879H351.88z M321.746,25.945l18.219,0.033c-0.195-2.268-1.109-4.051-2.74-5.348
			c-1.629-1.299-3.75-1.947-6.369-1.947c-2.598,0-4.715,0.654-6.355,1.963C322.861,21.957,321.941,23.725,321.746,25.945z"/>
		<path d="M390.47,16.637V0h11.289v48.822H390.47v-3.367c-1.564,1.561-3.393,2.719-5.498,3.467c-2.1,0.746-4.57,1.119-7.406,1.119
			c-6.098,0-11.057-1.77-14.873-5.313c-3.818-3.543-5.729-8.131-5.729-13.766c0-5.678,1.918-10.273,5.742-13.781
			c3.83-3.51,8.846-5.264,15.055-5.264c2.773,0,5.217,0.389,7.328,1.17C387.203,13.869,388.994,15.053,390.47,16.637z
			 M390.47,31.029c0-3.125-0.969-5.629-2.904-7.51c-1.938-1.883-4.521-2.822-7.758-2.822c-3.277,0-5.881,0.936-7.807,2.805
			c-1.93,1.871-2.891,4.402-2.891,7.594c0,3.168,0.971,5.689,2.906,7.557c1.934,1.873,4.531,2.807,7.791,2.807
			c3.236,0,5.82-0.949,7.758-2.854C389.501,36.703,390.47,34.176,390.47,31.029z"/>
	</g>
	<path class="st2" d="M269.5,42.775c-0.025-1.716-0.737-3.299-2.006-4.458c-2.327-2.127-5.973-2.129-8.3-0.004
		c-0.689,0.63-1.216,1.386-1.563,2.244c-0.031,0.078-0.045,0.162-0.044,0.245c0.001,0.092,0.021,0.183,0.062,0.268
		c0.08,0.162,0.224,0.283,0.397,0.334l2.877,0.844c0.29,0.084,0.603-0.039,0.743-0.296c0.345-0.63,1.005-1.013,1.722-0.996
		c0.984,0.022,1.82,0.841,1.863,1.826c0.023,0.518-0.161,1.017-0.52,1.396c-0.356,0.38-0.84,0.592-1.361,0.6
		c-0.688,0.01-1.333-0.354-1.679-0.951c-0.146-0.25-0.457-0.365-0.74-0.272l-2.86,0.931c-0.171,0.056-0.312,0.182-0.386,0.347
		c-0.072,0.163-0.073,0.35-0.003,0.511c0.371,0.849,0.921,1.587,1.629,2.197c2.39,2.054,6.034,1.944,8.296-0.251
		C268.861,46.094,269.526,44.49,269.5,42.775z"/>
</g>
</svg>
