<?xml version="1.0" encoding="utf-8"?>
<!-- Generator: Adobe Illustrator 16.0.0, SVG Export Plug-In . SVG Version: 6.00 Build 0)  -->
<!DOCTYPE svg PUBLIC "-//W3C//DTD SVG 1.1//EN" "http://www.w3.org/Graphics/SVG/1.1/DTD/svg11.dtd">
<svg version="1.1" id="Layer_1" xmlns="http://www.w3.org/2000/svg" xmlns:xlink="http://www.w3.org/1999/xlink" x="0px" y="0px"
	  viewBox="0 0 448.364 215.623" style="enable-background:new 0 0 448.364 215.623;"
	 xml:space="preserve">
<style type="text/css">
<![CDATA[
	.st0{display:none;fill:none;stroke:#FFFFFF;stroke-miterlimit:10;}
	.st1{display:none;fill:#010101;}
	.st2{fill:#F06597;}
	.st3{fill:none;stroke:#000000;stroke-width:3;stroke-miterlimit:10;}
	.st4{fill:none;stroke:#000000;stroke-width:3;}
]]>
</style>
<g>
	<g>
		<path class="st4" d="M321.638,4.797c0,100,0,100-200.001,100"/>
		<line class="st3" x1="121.637" y1="104.797" x2="220.676" y2="104.797"/>
		<path class="st3" d="M267.47,104.797"/>
		<path class="st4" d="M21.637,104.797"/>
		<line class="st4" x1="19.68" y1="105.25" x2="415.88" y2="103.893"/>
		<path class="st4" d="M320.677,4.797"/>
		<path class="st4" d="M350.44,104.117c-19.77,0-66.627-0.225-66.162,65.017"/>
		<line class="st3" x1="419.88" y1="103.893" x2="426.88" y2="103.893"/>
		<line class="st3" x1="430.622" y1="103.893" x2="437.622" y2="103.893"/>
		<line class="st3" x1="441.364" y1="103.893" x2="448.364" y2="103.893"/>
	</g>
	<circle class="st2" cx="321.638" cy="4.797" r="4.797"/>
	<path class="st2" d="M278.362,169.134c0-3.211,2.604-5.814,5.814-5.814c3.215,0,5.816,2.604,5.816,5.814
		c0,3.213-2.602,5.816-5.816,5.816C280.966,174.951,278.362,172.347,278.362,169.134z"/>
	<g>
		<path d="M49.743,135.998v38.953H37.597v-38.953H20.892v-9.869h45.554v9.869H49.743z"/>
		<path d="M71.593,174.951v-48.822h43.343v9.869H83.841v8.254h27.695v9.936H83.841v10.496h31.095v10.268H71.593z"/>
		<path d="M119.722,154.878h11.619v2.213c0,3.061,0.565,5.357,1.702,6.9c1.134,1.539,2.823,2.311,5.063,2.311
			c2.577,0,4.393-0.803,5.449-2.41c1.055-1.605,1.584-4.611,1.584-9.014v-28.75h12.147v27.859c0,4.4-0.173,7.539-0.513,9.408
			c-0.34,1.871-0.931,3.49-1.768,4.854c-1.582,2.596-3.783,4.576-6.6,5.941c-2.818,1.363-6.117,2.045-9.901,2.045
			c-6.428,0-11.165-1.473-14.214-4.422c-3.047-2.949-4.57-7.535-4.57-13.766V154.878z"/>
		<path d="M167.784,174.951v-48.822h43.342v9.869h-31.094v8.254h27.695v9.936h-27.695v10.496h31.094v10.268H167.784z"/>
		<path d="M219.081,174.951v-48.822h30.006c6.516,0,11.313,1.066,14.393,3.199c3.078,2.137,4.623,5.449,4.623,9.939
			c0,2.861-0.721,5.391-2.164,7.592c-1.439,2.199-3.428,3.785-5.955,4.754c2.152,0.9,3.666,2.018,4.535,3.35
			c0.871,1.33,1.381,3.682,1.537,7.047c0.02,0.332,0.043,0.783,0.064,1.354c0.264,6.055,1.121,9.916,2.576,11.588h-13.734
			c-0.328-0.527-0.574-1.111-0.742-1.75c-0.166-0.639-0.246-1.322-0.246-2.047v-3.303c0-4.488-0.578-7.428-1.736-8.813
			c-1.154-1.387-3.414-2.08-6.781-2.08h-0.299h-13.83v17.992H219.081z M231.327,146.957h13.83c3.652,0,6.223-0.445,7.711-1.336
			c1.482-0.891,2.227-2.361,2.227-4.406c0-1.98-0.693-3.369-2.08-4.16c-1.385-0.793-4.18-1.189-8.383-1.189h-13.305V146.957z"/>
		<path d="M313.292,174.951h-11.291v-36.445h11.291v4.82c1.715-2.066,3.48-3.604,5.297-4.605c1.814-1,3.725-1.5,5.727-1.5
			c0.396,0,1.156,0.066,2.277,0.197c0.398,0.021,0.695,0.045,0.893,0.066v9.605c-0.375-0.043-0.805-0.078-1.289-0.098
			c-0.484-0.023-1.242-0.035-2.277-0.035c-3.301,0-5.898,1.035-7.789,3.104c-1.893,2.068-2.838,4.93-2.838,8.584V174.951z"/>
		<path d="M372.772,163.132c-1.496,4.182-4.092,7.412-7.787,9.689c-3.699,2.275-8.199,3.414-13.502,3.414
			c-6.734,0-12.064-1.752-15.994-5.264c-3.924-3.51-5.893-8.27-5.893-14.275c0-6.01,1.959-10.758,5.877-14.244
			c3.916-3.488,9.252-5.232,16.01-5.232c7.018,0,12.426,1.809,16.225,5.428c3.795,3.621,5.695,8.775,5.695,15.467v1.551h-31.098
			c0.064,2.664,0.93,4.783,2.594,6.354c1.658,1.576,3.854,2.363,6.584,2.363c2.133,0,3.971-0.457,5.512-1.371
			c1.541-0.912,2.65-2.207,3.334-3.879H372.772z M342.638,152.074l18.219,0.033c-0.195-2.268-1.109-4.051-2.74-5.348
			c-1.629-1.299-3.75-1.947-6.369-1.947c-2.598,0-4.715,0.654-6.355,1.963C343.753,148.085,342.833,149.853,342.638,152.074z"/>
		<path d="M411.362,142.765v-16.637h11.289v48.822h-11.289v-3.367c-1.564,1.561-3.393,2.719-5.498,3.467
			c-2.1,0.746-4.57,1.119-7.406,1.119c-6.098,0-11.057-1.77-14.873-5.313c-3.818-3.543-5.729-8.131-5.729-13.766
			c0-5.678,1.918-10.273,5.742-13.781c3.83-3.51,8.846-5.264,15.055-5.264c2.773,0,5.217,0.389,7.328,1.17
			C408.095,139.998,409.886,141.181,411.362,142.765z M411.362,157.158c0-3.125-0.969-5.629-2.904-7.51
			c-1.938-1.883-4.521-2.822-7.758-2.822c-3.277,0-5.881,0.936-7.807,2.805c-1.93,1.871-2.891,4.402-2.891,7.594
			c0,3.168,0.971,5.689,2.906,7.557c1.934,1.873,4.531,2.807,7.791,2.807c3.236,0,5.82-0.949,7.758-2.854
			C410.394,162.832,411.362,160.304,411.362,157.158z"/>
	</g>
	<g>
		<path d="M38.5,196.308c0-2.072-0.036-3.854-0.145-5.49h2.8l0.109,3.455h0.146c0.8-2.365,2.728-3.855,4.873-3.855
			c0.364,0,0.619,0.035,0.909,0.109v3.018c-0.326-0.072-0.654-0.109-1.09-0.109c-2.256,0-3.855,1.709-4.293,4.109
			c-0.072,0.436-0.145,0.947-0.145,1.492v9.385H38.5V196.308z"/>
		<path d="M51.813,200.199c0.072,4.33,2.837,6.113,6.037,6.113c2.291,0,3.674-0.4,4.873-0.91l0.546,2.289
			c-1.127,0.51-3.055,1.092-5.855,1.092c-5.42,0-8.656-3.563-8.656-8.873s3.128-9.492,8.256-9.492c5.747,0,7.274,5.055,7.274,8.293
			c0,0.654-0.073,1.162-0.108,1.488H51.813z M61.195,197.91c0.037-2.037-0.836-5.201-4.437-5.201c-3.238,0-4.656,2.982-4.91,5.201
			H61.195z"/>
		<path d="M68.251,196.564c0-2.256-0.072-4.074-0.145-5.746h2.872l0.146,3.018h0.074c1.309-2.146,3.383-3.418,6.254-3.418
			c4.256,0,7.457,3.6,7.457,8.947c0,6.328-3.855,9.455-8.002,9.455c-2.326,0-4.364-1.018-5.42-2.764h-0.072v9.566h-3.164V196.564z
			 M71.415,201.257c0,0.471,0.072,0.908,0.146,1.309c0.581,2.217,2.509,3.746,4.801,3.746c3.383,0,5.346-2.766,5.346-6.803
			c0-3.527-1.854-6.545-5.236-6.545c-2.183,0-4.219,1.563-4.838,3.963c-0.109,0.4-0.219,0.873-0.219,1.309V201.257z"/>
		<path d="M104.876,199.472c0,6.512-4.51,9.348-8.765,9.348c-4.765,0-8.438-3.492-8.438-9.057c0-5.891,3.855-9.346,8.729-9.346
			C101.458,190.417,104.876,194.091,104.876,199.472z M90.909,199.656c0,3.855,2.219,6.766,5.348,6.766
			c3.055,0,5.347-2.875,5.347-6.84c0-2.98-1.491-6.766-5.274-6.766C92.548,192.816,90.909,196.308,90.909,199.656z"/>
		<path d="M108.478,205.148c0.946,0.617,2.619,1.273,4.219,1.273c2.328,0,3.42-1.166,3.42-2.621c0-1.527-0.91-2.363-3.273-3.236
			c-3.164-1.127-4.656-2.873-4.656-4.982c0-2.838,2.291-5.164,6.074-5.164c1.781,0,3.346,0.51,4.328,1.09l-0.801,2.328
			c-0.691-0.436-1.964-1.02-3.6-1.02c-1.893,0-2.947,1.092-2.947,2.4c0,1.457,1.055,2.111,3.348,2.984
			c3.054,1.164,4.618,2.691,4.618,5.311c0,3.09-2.401,5.271-6.583,5.271c-1.928,0-3.711-0.473-4.946-1.199L108.478,205.148z"/>
		<path d="M126.882,185.871c0.037,1.092-0.764,1.963-2.037,1.963c-1.128,0-1.927-0.871-1.927-1.963c0-1.127,0.835-2,1.999-2
			C126.118,183.871,126.882,184.744,126.882,185.871z M123.316,208.421v-17.604h3.202v17.604H123.316z"/>
		<path d="M135.683,185.761v5.057h4.583v2.436h-4.583v9.492c0,2.184,0.619,3.418,2.4,3.418c0.837,0,1.455-0.107,1.855-0.217
			l0.146,2.4c-0.619,0.254-1.601,0.436-2.837,0.436c-1.491,0-2.691-0.473-3.455-1.344c-0.91-0.945-1.236-2.51-1.236-4.584v-9.602
			h-2.729v-2.436h2.729v-4.221L135.683,185.761z"/>
		<path d="M159.579,199.472c0,6.512-4.51,9.348-8.766,9.348c-4.764,0-8.438-3.492-8.438-9.057c0-5.891,3.855-9.346,8.729-9.346
			C156.16,190.417,159.579,194.091,159.579,199.472z M145.612,199.656c0,3.855,2.219,6.766,5.347,6.766
			c3.055,0,5.347-2.875,5.347-6.84c0-2.98-1.492-6.766-5.274-6.766S145.612,196.308,145.612,199.656z"/>
		<path d="M163.616,196.308c0-2.072-0.036-3.854-0.145-5.49h2.8l0.108,3.455h0.146c0.801-2.365,2.728-3.855,4.873-3.855
			c0.363,0,0.619,0.035,0.909,0.109v3.018c-0.327-0.072-0.655-0.109-1.091-0.109c-2.255,0-3.855,1.709-4.291,4.109
			c-0.074,0.436-0.146,0.947-0.146,1.492v9.385h-3.164V196.308z"/>
		<path d="M179.22,185.871c0.037,1.092-0.764,1.963-2.037,1.963c-1.128,0-1.927-0.871-1.927-1.963c0-1.127,0.835-2,1.999-2
			C178.456,183.871,179.22,184.744,179.22,185.871z M175.654,208.421v-17.604h3.202v17.604H175.654z"/>
		<path d="M200.096,199.472c0,6.512-4.51,9.348-8.765,9.348c-4.765,0-8.438-3.492-8.438-9.057c0-5.891,3.854-9.346,8.729-9.346
			C196.677,190.417,200.096,194.091,200.096,199.472z M186.13,199.656c0,3.855,2.218,6.766,5.346,6.766
			c3.055,0,5.348-2.875,5.348-6.84c0-2.98-1.492-6.766-5.275-6.766C187.767,192.816,186.13,196.308,186.13,199.656z"/>
		<path d="M227.046,182.597v21.277c0,1.563,0.037,3.346,0.146,4.547h-2.873l-0.146-3.057h-0.072
			c-0.982,1.965-3.128,3.455-6.002,3.455c-4.254,0-7.528-3.6-7.528-8.947c-0.036-5.855,3.601-9.455,7.892-9.455
			c2.691,0,4.51,1.271,5.311,2.691h0.074v-10.512H227.046z M223.847,197.98c0-0.398-0.037-0.943-0.146-1.344
			c-0.473-2.037-2.219-3.709-4.619-3.709c-3.311,0-5.273,2.908-5.273,6.801c0,3.564,1.746,6.51,5.201,6.51
			c2.145,0,4.109-1.418,4.691-3.818c0.109-0.436,0.146-0.873,0.146-1.383V197.98z"/>
		<path d="M234.14,200.199c0.072,4.33,2.838,6.113,6.037,6.113c2.291,0,3.674-0.4,4.873-0.91l0.547,2.289
			c-1.127,0.51-3.055,1.092-5.855,1.092c-5.42,0-8.656-3.563-8.656-8.873s3.127-9.492,8.256-9.492c5.746,0,7.273,5.055,7.273,8.293
			c0,0.654-0.072,1.162-0.109,1.488H234.14z M243.522,197.91c0.037-2.037-0.836-5.201-4.438-5.201c-3.236,0-4.654,2.982-4.91,5.201
			H243.522z"/>
		<path d="M259.526,190.818l3.455,9.891c0.582,1.602,1.055,3.057,1.418,4.512h0.109c0.4-1.455,0.908-2.91,1.49-4.512l3.42-9.891
			h3.346l-6.91,17.604H262.8l-6.693-17.604H259.526z"/>
		<path d="M291.351,199.472c0,6.512-4.51,9.348-8.766,9.348c-4.764,0-8.438-3.492-8.438-9.057c0-5.891,3.854-9.346,8.729-9.346
			C287.933,190.417,291.351,194.091,291.351,199.472z M277.384,199.656c0,3.855,2.219,6.766,5.348,6.766
			c3.055,0,5.346-2.875,5.346-6.84c0-2.98-1.492-6.766-5.275-6.766C279.021,192.816,277.384,196.308,277.384,199.656z"/>
		<path d="M295.388,182.597h3.201v25.824h-3.201V182.597z"/>
		<path d="M318.702,203.619c0,1.818,0.035,3.42,0.145,4.803h-2.836l-0.182-2.875h-0.074c-0.836,1.418-2.691,3.273-5.818,3.273
			c-2.764,0-6.074-1.529-6.074-7.711v-10.291h3.201v9.746c0,3.346,1.02,5.6,3.928,5.6c2.146,0,3.637-1.49,4.219-2.908
			c0.182-0.473,0.291-1.055,0.291-1.637v-10.801h3.201V203.619z"/>
		<path d="M324.013,195.582c0-1.818-0.035-3.309-0.145-4.764h2.836l0.182,2.908h0.074c0.873-1.672,2.908-3.309,5.818-3.309
			c2.438,0,6.221,1.455,6.221,7.492v10.512h-3.201v-10.148c0-2.838-1.055-5.201-4.074-5.201c-2.109,0-3.746,1.49-4.291,3.273
			c-0.146,0.398-0.219,0.945-0.219,1.492v10.584h-3.201V195.582z"/>
		<path d="M347.909,185.761v5.057h4.582v2.436h-4.582v9.492c0,2.184,0.617,3.418,2.4,3.418c0.836,0,1.455-0.107,1.855-0.217
			l0.145,2.4c-0.619,0.254-1.602,0.436-2.836,0.436c-1.492,0-2.693-0.473-3.457-1.344c-0.908-0.945-1.236-2.51-1.236-4.584v-9.602
			h-2.727v-2.436h2.727v-4.221L347.909,185.761z"/>
		<path d="M365.839,208.421l-0.254-2.221h-0.109c-0.982,1.383-2.873,2.619-5.383,2.619c-3.564,0-5.383-2.508-5.383-5.055
			c0-4.256,3.781-6.582,10.584-6.547v-0.365c0-1.453-0.4-4.072-4.002-4.072c-1.635,0-3.346,0.51-4.582,1.311l-0.729-2.111
			c1.457-0.943,3.566-1.563,5.785-1.563c5.383,0,6.691,3.674,6.691,7.201v6.582c0,1.527,0.072,3.02,0.291,4.221H365.839z
			 M365.366,199.437c-3.49-0.072-7.455,0.545-7.455,3.963c0,2.074,1.381,3.057,3.018,3.057c2.291,0,3.746-1.455,4.256-2.945
			c0.109-0.328,0.182-0.691,0.182-1.02V199.437z"/>
		<path d="M388.827,182.597v21.277c0,1.563,0.035,3.346,0.145,4.547h-2.873l-0.146-3.057h-0.072
			c-0.982,1.965-3.127,3.455-6.002,3.455c-4.254,0-7.527-3.6-7.527-8.947c-0.035-5.855,3.6-9.455,7.893-9.455
			c2.689,0,4.51,1.271,5.309,2.691h0.074v-10.512H388.827z M385.626,197.98c0-0.398-0.037-0.943-0.146-1.344
			c-0.473-2.037-2.217-3.709-4.617-3.709c-3.311,0-5.275,2.908-5.275,6.801c0,3.564,1.746,6.51,5.201,6.51
			c2.145,0,4.109-1.418,4.691-3.818c0.109-0.436,0.146-0.873,0.146-1.383V197.98z"/>
		<path d="M395.919,200.199c0.072,4.33,2.838,6.113,6.037,6.113c2.291,0,3.674-0.4,4.873-0.91l0.547,2.289
			c-1.127,0.51-3.055,1.092-5.855,1.092c-5.42,0-8.658-3.563-8.658-8.873s3.129-9.492,8.258-9.492c5.746,0,7.273,5.055,7.273,8.293
			c0,0.654-0.072,1.162-0.109,1.488H395.919z M405.302,197.91c0.037-2.037-0.836-5.201-4.436-5.201c-3.238,0-4.656,2.982-4.91,5.201
			H405.302z"/>
		<path d="M411.923,205.148c0.945,0.617,2.617,1.273,4.219,1.273c2.326,0,3.418-1.166,3.418-2.621c0-1.527-0.91-2.363-3.273-3.236
			c-3.164-1.127-4.654-2.873-4.654-4.982c0-2.838,2.289-5.164,6.072-5.164c1.781,0,3.348,0.51,4.328,1.09l-0.799,2.328
			c-0.691-0.436-1.965-1.02-3.602-1.02c-1.891,0-2.945,1.092-2.945,2.4c0,1.457,1.055,2.111,3.346,2.984
			c3.055,1.164,4.619,2.691,4.619,5.311c0,3.09-2.4,5.271-6.584,5.271c-1.928,0-3.709-0.473-4.945-1.199L411.923,205.148z"/>
	</g>
	<path class="st2" d="M29.812,104.159c-0.179-4.272-2.059-8.17-5.295-10.973c-5.939-5.143-15.021-4.906-20.676,0.542
		c-1.677,1.616-2.938,3.533-3.744,5.695c-0.074,0.196-0.104,0.404-0.096,0.611c0.01,0.229,0.066,0.456,0.174,0.664
		c0.207,0.398,0.576,0.69,1.011,0.808l7.224,1.91c0.728,0.191,1.498-0.137,1.83-0.787c0.818-1.593,2.436-2.59,4.223-2.595
		c2.454-0.009,4.592,1.975,4.766,4.424c0.094,1.29-0.335,2.543-1.201,3.515c-0.865,0.969-2.055,1.529-3.353,1.584
		c-1.715,0.071-3.343-0.794-4.245-2.258c-0.381-0.615-1.162-0.877-1.863-0.628l-7.061,2.513c-0.424,0.15-0.768,0.473-0.939,0.889
		c-0.17,0.411-0.161,0.875,0.027,1.273c0.982,2.09,2.397,3.894,4.205,5.366c6.089,4.958,15.158,4.439,20.648-1.179
		C28.44,112.47,29.99,108.429,29.812,104.159z"/>
</g>
</svg>
