<?xml version="1.0" encoding="utf-8"?>
<!-- Generator: Adobe Illustrator 16.0.0, SVG Export Plug-In . SVG Version: 6.00 Build 0)  -->
<!DOCTYPE svg PUBLIC "-//W3C//DTD SVG 1.1//EN" "http://www.w3.org/Graphics/SVG/1.1/DTD/svg11.dtd">
<svg version="1.1" id="Layer_1" xmlns="http://www.w3.org/2000/svg" xmlns:xlink="http://www.w3.org/1999/xlink" x="0px" y="0px"
	 width="318.065px" height="260.951px" viewBox="0 0 318.065 260.951" style="enable-background:new 0 0 318.065 260.951;"
	 xml:space="preserve">
<style type="text/css">
<![CDATA[
	.st0{display:none;fill:none;stroke:#FFFFFF;stroke-miterlimit:10;}
	.st1{display:none;fill:#010101;}
	.st2{fill:#F06597;}
	.st3{fill:none;stroke:#000000;stroke-width:3;stroke-miterlimit:10;}
	.st4{fill:none;stroke:#000000;stroke-width:3;}
]]>
</style>
<g>
	<path class="st3" d="M99.02,156.312"/>
	<path class="st4" d="M1.176,155.469"/>
	<line class="st4" x1="24.669" y1="156.146" x2="281.477" y2="154.962"/>
	<line class="st3" x1="285.477" y1="154.962" x2="292.477" y2="154.962"/>
	<line class="st3" x1="296.219" y1="154.962" x2="303.219" y2="154.962"/>
	<line class="st3" x1="306.961" y1="154.962" x2="313.961" y2="154.962"/>
	<path class="st4" d="M178.382,7.154"/>
	<path class="st4" d="M222.776,155.298c-29.486,0-99.378-0.336-98.685,96.979"/>
	<path class="st4" d="M179.815,7.154c-1.888,44.702,10.045,110.331-40.669,131.213C103.349,153.283,64.568,154.774,25.4,155.17"/>
	<circle class="st2" cx="179.815" cy="7.154" r="7.155"/>
	<path class="st2" d="M115.267,252.276c0-4.79,3.883-8.673,8.673-8.673c4.795,0,8.675,3.883,8.675,8.673
		c0,4.792-3.88,8.675-8.675,8.675C119.15,260.951,115.267,257.068,115.267,252.276z"/>
	<path class="st2" d="M29.716,154.65c-0.088-4.275-1.884-8.213-5.06-11.082c-5.83-5.269-14.914-5.226-20.684,0.101
		c-1.709,1.58-3.01,3.47-3.864,5.615c-0.079,0.194-0.112,0.401-0.108,0.608c0.004,0.229,0.056,0.457,0.159,0.668
		c0.199,0.402,0.563,0.702,0.994,0.828l7.18,2.063c0.726,0.207,1.502-0.104,1.848-0.747c0.851-1.575,2.488-2.537,4.275-2.505
		c2.456,0.043,4.55,2.072,4.672,4.524c0.065,1.292-0.39,2.536-1.276,3.489c-0.885,0.95-2.087,1.484-3.386,1.513
		c-1.715,0.034-3.324-0.866-4.197-2.349c-0.368-0.622-1.143-0.901-1.848-0.667l-7.114,2.361c-0.426,0.141-0.776,0.457-0.958,0.869
		c-0.179,0.407-0.179,0.872,0,1.273c0.938,2.111,2.314,3.943,4.09,5.454c5.982,5.087,15.061,4.761,20.669-0.739
		C28.168,162.931,29.804,158.923,29.716,154.65z"/>
	<g>
		<path class="st4" d="M101.384,120.542"/>
	</g>
</g>
</svg>
